<svg xmlns="http://www.w3.org/2000/svg" height="24" viewBox="0 -960 960 960" width="24"><path d="M247.85-260.62q51-36.69 108.23-58.03Q413.31-340 480-340t123.92 21.35q57.23 21.34 108.23 58.03 39.62-41 63.73-96.84Q800-413.31 800-480q0-133-93.5-226.5T480-800q-133 0-226.5 93.5T160-480q0 66.69 24.12 122.54 24.11 55.84 63.73 96.84Zm146.88-234.11Q360-529.46 360-580t34.73-85.27Q429.46-700 480-700t85.27 34.73Q600-630.54 600-580t-34.73 85.27Q530.54-460 480-460t-85.27-34.73ZM480-120q-75.31 0-141-28.04t-114.31-76.65Q176.08-273.31 148.04-339 120-404.69 120-480t28.04-141q28.04-65.69 76.65-114.31 48.62-48.61 114.31-76.65Q404.69-840 480-840t141 28.04q65.69 28.04 114.31 76.65 48.61 48.62 76.65 114.31Q840-555.31 840-480t-28.04 141q-28.04 65.69-76.65 114.31-48.62 48.61-114.31 76.65Q555.31-120 480-120Zm108.85-59.35q53.53-19.34 92.53-52.96-39-31.31-90.23-49.5Q539.92-300 480-300q-59.92 0-111.54 17.81-51.61 17.81-89.84 49.88 39 33.62 92.53 52.96Q424.69-160 480-160q55.31 0 108.85-19.35Zm-52-343.8Q560-546.31 560-580t-23.15-56.85Q513.69-660 480-660t-56.85 23.15Q400-613.69 400-580t23.15 56.85Q446.31-500 480-500t56.85-23.15ZM480-580Zm0 350Z"/></svg>