<svg xmlns="http://www.w3.org/2000/svg" height="24" viewBox="0 -960 960 960" width="24"><path d="M169.23-89.23Q140-118.46 140-160q0-41.54 29.23-70.77Q198.46-260 240-260q11.69 0 24.46 3.38 12.77 3.39 23.77 9.16l101.62-126.39q-21.85-23.3-29.77-51.53-7.93-28.24-2.7-57.24l-149.46-49.3q-13.15 23.46-36.46 37.69Q148.15-480 120-480q-41.54 0-70.77-29.23Q20-538.46 20-580q0-41.54 29.23-70.77Q78.46-680 120-680q41.54 0 70.77 29.23Q220-621.54 220-580q0 5.08-.38 7.85-.39 2.77-.39 5.53l148.69 51.85Q381-540 405.27-558.85q24.27-18.84 57.04-24.3v-158.54q-38.23-7.16-60.27-35.58Q380-805.69 380-840q0-41.54 29.23-70.77Q438.46-940 480-940q41.54 0 70.77 29.23Q580-881.54 580-840q0 34.31-22.15 62.73-22.16 28.42-60.16 35.58v158.54q32.77 5.46 56.66 24.3 23.88 18.85 37.73 44.08l148.69-51.85q-.77-3.53-.77-5.92V-580q0-41.54 29.23-70.77Q798.46-680 840-680q41.54 0 70.77 29.23Q940-621.54 940-580q0 41.54-29.23 70.77Q881.54-480 840-480q-28.15 0-51.58-14.23-23.42-14.23-36.34-37.69l-149.46 49.3q5.23 29-2.7 57.12-7.92 28.12-29.77 50.88l101.62 126.16q11-5 23.77-8.27Q708.31-260 720-260q41.54 0 70.77 29.23Q820-201.54 820-160q0 41.54-29.23 70.77Q761.54-60 720-60q-41.54 0-70.77-29.23Q620-118.46 620-160q0-17.69 5.73-34.27 5.73-16.58 19.04-30.81L543.15-353q-27.15 17.62-62.88 17.62-35.73 0-63.65-17.62L315.23-225.08q12.54 14.23 18.65 30.81Q340-177.69 340-160q0 41.54-29.23 70.77Q281.54-60 240-60q-41.54 0-70.77-29.23ZM120-520q24.69 0 42.35-17.65Q180-555.31 180-580t-17.65-42.35Q144.69-640 120-640t-42.35 17.65Q60-604.69 60-580t17.65 42.35Q95.31-520 120-520Zm162.35 402.35Q300-135.31 300-160t-17.65-42.35Q264.69-220 240-220t-42.35 17.65Q180-184.69 180-160t17.65 42.35Q215.31-100 240-100t42.35-17.65Zm240-680Q540-815.31 540-840t-17.65-42.35Q504.69-900 480-900t-42.35 17.65Q420-864.69 420-840t17.65 42.35Q455.31-780 480-780t42.35-17.65ZM480-375.38q35.08 0 59.85-24.77 24.77-24.77 24.77-59.85t-24.77-59.85q-24.77-24.77-59.85-24.77t-59.85 24.77q-24.77 24.77-24.77 59.85t24.77 59.85q24.77 24.77 59.85 24.77Zm282.35 257.73Q780-135.31 780-160t-17.65-42.35Q744.69-220 720-220t-42.35 17.65Q660-184.69 660-160t17.65 42.35Q695.31-100 720-100t42.35-17.65Zm120-420Q900-555.31 900-580t-17.65-42.35Q864.69-640 840-640t-42.35 17.65Q780-604.69 780-580t17.65 42.35Q815.31-520 840-520t42.35-17.65ZM480-840ZM120-580Zm360 120Zm360-120ZM240-160Zm480 0Z"/></svg>