<svg xmlns="http://www.w3.org/2000/svg" height="24" viewBox="0 -960 960 960" width="24"><path d="M120-180q-25.31 0-42.65-17.35Q60-214.69 60-240t17.35-42.65Q94.69-300 120-300q7.54 0 13.96 1.15 6.42 1.16 12.19 5.47l200.47-200.47q-4.31-5.77-5.47-12.19Q340-512.46 340-520q0-25.31 17.35-42.65Q374.69-580 400-580t42.65 17.35Q460-545.31 460-520q0 5.08-5.08 24.62l120.46 120.46q5.77-2.77 11.43-3.93Q592.46-380 600-380q7.54 0 13.58 1.15 6.04 1.16 11.04 5.47l162-162q-4.31-5-5.47-11.04Q780-552.46 780-560q0-25.31 17.35-42.65Q814.69-620 840-620t42.65 17.35Q900-585.31 900-560t-17.35 42.65Q865.31-500 840-500q-7.54 0-13.58-1.15-6.04-1.16-11.04-5.47l-162 162q4.31 5 5.47 11.04Q660-327.54 660-320q0 25.31-17.35 42.65Q625.31-260 600-260t-42.65-17.35Q540-294.69 540-320q0-7.54 1.15-13.96 1.16-6.42 5.47-12.19L426.15-466.62q-5.77 4.31-12.19 5.47Q407.54-460 400-460q-5.08 0-24.62-5.08L174.92-264.62q2.77 5.77 3.93 11.43Q180-247.54 180-240q0 25.31-17.35 42.65Q145.31-180 120-180Zm40-412.54L145-625l-32.46-15L145-655l15-32.46L175-655l32.46 15L175-625l-15 32.46Zm440-55.92-22.62-48.92L528.46-720l48.92-22.62L600-791.54l22.62 48.92L671.54-720l-48.92 22.62L600-648.46Z"/></svg>