<svg xmlns="http://www.w3.org/2000/svg" height="24" viewBox="0 -960 960 960" width="24"><path d="M200-400q-33.85 0-56.92-23.08Q120-446.15 120-480t23.08-56.92Q166.15-560 200-560v-95.38q0-26.66 18.98-45.64T264.62-720H400q0-33.85 23.08-56.92Q446.15-800 480-800t56.92 23.08Q560-753.85 560-720h135.38q26.66 0 45.64 18.98T760-655.38V-560q33.85 0 56.92 23.08Q840-513.85 840-480t-23.08 56.92Q793.85-400 760-400v175.38q0 26.66-18.98 45.64T695.38-160H264.62q-26.66 0-45.64-18.98T200-224.62V-400Zm188.27-71.64Q400-483.28 400-499.91t-11.64-28.36Q376.72-540 360.09-540t-28.36 11.64Q320-516.72 320-500.09t11.64 28.36Q343.28-460 359.91-460t28.36-11.64Zm240 0Q640-483.28 640-499.91t-11.64-28.36Q616.72-540 600.09-540t-28.36 11.64Q560-516.72 560-500.09t11.64 28.36Q583.28-460 599.91-460t28.36-11.64ZM340-300h280v-40H340v40Zm-75.38 100h430.76q10.77 0 17.7-6.92 6.92-6.93 6.92-17.7v-430.76q0-10.77-6.92-17.7-6.93-6.92-17.7-6.92H264.62q-10.77 0-17.7 6.92-6.92 6.93-6.92 17.7v430.76q0 10.77 6.92 17.7 6.93 6.92 17.7 6.92ZM480-440Z"/></svg>