<svg xmlns="http://www.w3.org/2000/svg" height="24" viewBox="0 -960 960 960" width="24"><path d="M655.38-120H304.62q-26.85 0-45.74-18.88Q240-157.77 240-184.62v-590.76q0-26.85 18.88-45.74Q277.77-840 304.62-840h350.76q26.85 0 45.74 18.88Q720-802.23 720-775.38v590.76q0 26.85-18.88 45.74Q682.23-120 655.38-120Zm0-40q10.77 0 17.7-6.92 6.92-6.93 6.92-17.7v-590.76q0-10.77-6.92-17.7-6.93-6.92-17.7-6.92H304.62q-10.77 0-17.7 6.92-6.92 6.93-6.92 17.7v590.76q0 10.77 6.92 17.7 6.93 6.92 17.7 6.92h350.76ZM525.73-634.27q18.89-18.88 18.89-45.73 0-26.85-18.89-45.73-18.88-18.89-45.73-18.89-26.85 0-45.73 18.89-18.89 18.88-18.89 45.73 0 26.85 18.89 45.73 18.88 18.89 45.73 18.89 26.85 0 45.73-18.89ZM578-262q40.46-40.46 40.46-98T578-458q-40.46-40.46-98-40.46T382-458q-40.46 40.46-40.46 98T382-262q40.46 40.46 98 40.46T578-262Zm-167.58-28.42q-28.88-28.89-28.88-69.58t28.88-69.58q28.89-28.88 69.58-28.88t69.58 28.88q28.88 28.89 28.88 69.58t-28.88 69.58q-28.89 28.88-69.58 28.88t-69.58-28.88ZM280-800v640-640Z"/></svg>