<svg xmlns="http://www.w3.org/2000/svg" height="24" viewBox="0 -960 960 960" width="24"><path d="M340-148.42q-65.69-28.43-114.42-77.16-48.73-48.73-77.16-114.42Q120-405.69 120-480.12q0-74.42 28.42-140 28.43-65.57 77.16-114.3 48.73-48.73 114.42-77.16Q405.69-840 480.12-840q74.42 0 140 28.42 65.57 28.43 114.3 77.16 48.73 48.73 77.16 114.3 28.42 65.58 28.42 140 0 74.43-28.42 140.12-28.43 65.69-77.16 114.42-48.73 48.73-114.3 77.16-65.58 28.42-140 28.42-74.43 0-140.12-28.42Zm332.69-138.89q79.62-79.61 79.62-192.69t-79.62-192.69Q593.08-752.31 480-752.31t-192.69 79.62Q207.69-593.08 207.69-480t79.62 192.69q79.61 79.62 192.69 79.62t192.69-79.62Z"/></svg>