<svg width="40" height="40" viewBox="0 0 40 40" fill="none" xmlns="http://www.w3.org/2000/svg">
<path d="M3.33594 20.0032C3.33788 28.2022 9.29994 35.1833 17.3976 36.4682V24.8199H13.1693V20.0032H17.4026V16.3366C17.2134 14.5991 17.8068 12.8676 19.022 11.6115C20.2372 10.3554 21.9482 9.70493 23.6909 9.83658C24.9418 9.85678 26.1896 9.96819 27.4243 10.1699V14.2682H25.3176C24.5923 14.1733 23.8632 14.4128 23.3356 14.9194C22.8079 15.4259 22.5389 16.1447 22.6043 16.8732V20.0032H27.2226L26.4843 24.8216H22.6043V36.4682C31.3617 35.0842 37.5028 27.0862 36.5785 18.2684C35.6541 9.45053 27.9881 2.89979 19.134 3.36188C10.2799 3.82396 3.33734 11.1371 3.33594 20.0032Z" fill="#0B0101"/>
</svg>
