<svg width="40" height="40" viewBox="0 0 40 40" fill="none" xmlns="http://www.w3.org/2000/svg">
<path d="M20.0039 35.0688C15.9039 35.0688 15.4206 35.0471 13.8206 34.9771C12.5729 34.9361 11.3413 34.6825 10.1789 34.2271C8.16776 33.4445 6.57747 31.8536 5.79557 29.8421C5.35775 28.6755 5.1216 27.4429 5.09724 26.1971C5.00391 24.6005 5.00391 24.0771 5.00391 20.0088C5.00391 15.8971 5.02557 15.4171 5.09724 13.8255C5.12214 12.5813 5.35827 11.3505 5.79557 10.1855C6.57663 8.17134 8.16949 6.57908 10.1839 5.79879C11.3483 5.35913 12.5795 5.12236 13.8239 5.09879C15.4156 5.00879 15.9389 5.00879 20.0039 5.00879C24.1372 5.00879 24.6122 5.03046 26.1872 5.09879C27.4349 5.12257 28.6693 5.35931 29.8372 5.79879C31.8511 6.57996 33.4436 8.17192 34.2256 10.1855C34.6708 11.3674 34.9082 12.6175 34.9272 13.8805C35.0206 15.4771 35.0206 15.9988 35.0206 20.0655C35.0206 24.1321 34.9972 24.6655 34.9272 26.2438C34.9024 27.4908 34.6657 28.7245 34.2272 29.8921C33.4433 31.905 31.8507 33.4964 29.8372 34.2788C28.671 34.7158 27.4391 34.9519 26.1939 34.9771C24.6022 35.0688 24.0806 35.0688 20.0039 35.0688ZM19.9472 7.64712C15.8706 7.64712 15.4472 7.66712 13.8556 7.73879C12.9055 7.75138 11.9647 7.92669 11.0739 8.25712C9.75849 8.76047 8.71762 9.79711 8.20891 11.1105C7.87593 12.011 7.70059 12.9621 7.69057 13.9221C7.60224 15.5371 7.60224 15.9605 7.60224 20.0088C7.60224 24.0088 7.61724 24.4938 7.69057 26.0988C7.70549 27.0491 7.88073 27.9901 8.20891 28.8821C8.71837 30.1946 9.75906 31.2305 11.0739 31.7338C11.9641 32.0664 12.9053 32.2418 13.8556 32.2521C15.4689 32.3455 15.8939 32.3455 19.9472 32.3455C24.0356 32.3455 24.4589 32.3255 26.0372 32.2521C26.9879 32.2406 27.9295 32.0652 28.8206 31.7338C30.128 31.2261 31.1621 30.1926 31.6706 28.8855C32.0029 27.9842 32.1782 27.0326 32.1889 26.0721H32.2072C32.2789 24.4788 32.2789 24.0538 32.2789 19.9821C32.2789 15.9105 32.2606 15.4821 32.1889 13.8905C32.174 12.9412 31.9987 12.0013 31.6706 11.1105C31.1633 9.80141 30.129 8.76594 28.8206 8.25712C27.9297 7.92502 26.988 7.74966 26.0372 7.73879C24.4256 7.64712 24.0039 7.64712 19.9472 7.64712ZM20.0039 27.7071C16.8872 27.7091 14.0763 25.8333 12.882 22.9545C11.6877 20.0758 12.3454 16.761 14.5483 14.5562C16.7512 12.3514 20.0653 11.6909 22.9452 12.8827C25.825 14.0744 27.7032 16.8838 27.7039 20.0005C27.6993 24.2522 24.2557 27.6989 20.0039 27.7071ZM20.0039 14.9971C17.2425 14.9971 15.0039 17.2357 15.0039 19.9971C15.0039 22.7585 17.2425 24.9971 20.0039 24.9971C22.7653 24.9971 25.0039 22.7585 25.0039 19.9971C24.9975 17.2384 22.7627 15.0035 20.0039 14.9971ZM28.0039 13.8088C27.0129 13.8051 26.2121 12.9998 26.2139 12.0088C26.2157 11.0178 27.0196 10.2155 28.0106 10.2155C29.0015 10.2155 29.8054 11.0178 29.8072 12.0088C29.8077 12.4869 29.6177 12.9455 29.2793 13.2833C28.941 13.621 28.482 13.8101 28.0039 13.8088Z" fill="#0B0101"/>
</svg>
