<svg width="40" height="40" viewBox="0 0 40 40" fill="none" xmlns="http://www.w3.org/2000/svg">
<path d="M14.5702 14.4698C12.7817 15.9896 12.1263 18.7612 13.6706 20.9847C15.1158 23.0654 16.9363 24.8855 19.0165 26.33C21.2401 27.8741 24.0116 27.2185 25.5312 25.4298L25.5481 25.4377C27.4891 26.3368 29.5506 26.9531 31.6667 27.2671V31.6666L31.6649 31.6666L31.6601 31.6666C18.3692 31.6855 8.31913 21.5185 8.33335 8.33932V8.33333H12.7323L12.7326 8.33528C13.0467 10.4511 13.6627 12.5109 14.5619 14.4518L14.5702 14.4698ZM31.6649 35H33.3333C34.2538 35 35 34.2538 35 33.3333V25.8295C35 25.0036 34.395 24.3022 33.578 24.1809L32.1544 23.9696C30.3538 23.7024 28.6009 23.1782 26.9492 22.4131L25.6944 21.8318C24.9673 21.495 24.1034 21.7233 23.6376 22.3754L23.0696 23.1707C22.5718 23.8677 21.6213 24.0806 20.9177 23.5921C19.1639 22.3742 17.6268 20.8374 16.4084 19.0832C15.9197 18.3796 16.1326 17.429 16.8297 16.9311L17.6246 16.3634C18.2768 15.8977 18.5052 15.0337 18.1683 14.3065L17.5864 13.0505C16.8212 11.399 16.297 9.64624 16.0298 7.84581L15.8184 6.42193C15.6971 5.60493 14.9957 5 14.1698 5H6.66668C5.74621 5 5.00002 5.74619 5.00002 6.66667V8.33572C4.98382 23.3464 16.5171 35.0215 31.6649 35Z" fill="#0B0101"/>
</svg>
