<svg width="40" height="40" viewBox="0 0 40 40" fill="none" xmlns="http://www.w3.org/2000/svg">
<path d="M29.7427 22.7527L24.512 20.1373C24.3061 20.0347 24.0768 19.9882 23.8472 20.0026C23.6176 20.0169 23.3958 20.0916 23.2043 20.219L20.803 21.821C19.7007 21.215 18.7936 20.3079 18.1877 19.2056L19.7896 16.8043C19.917 16.6128 19.9917 16.3911 20.006 16.1615C20.0204 15.9319 19.9739 15.7025 19.8713 15.4966L17.2559 10.2659C17.1475 10.0469 16.98 9.86276 16.7722 9.7342C16.5645 9.60563 16.3249 9.53783 16.0806 9.53846C14.3465 9.53846 12.6834 10.2273 11.4572 11.4535C10.231 12.6797 9.54217 14.3428 9.54217 16.0769C9.5465 19.8906 11.0634 23.5469 13.7601 26.2436C16.4568 28.9403 20.1131 30.4572 23.9268 30.4615C24.7854 30.4615 25.6357 30.2924 26.4289 29.9638C27.2222 29.6352 27.943 29.1536 28.5502 28.5465C29.1573 27.9393 29.6389 27.2185 29.9675 26.4252C30.2961 25.632 30.4652 24.7817 30.4652 23.9231C30.4654 23.6801 30.3979 23.4419 30.2703 23.2352C30.1427 23.0285 29.96 22.8614 29.7427 22.7527ZM23.9268 27.8462C20.8065 27.8427 17.8149 26.6016 15.6085 24.3952C13.4021 22.1888 12.161 19.1973 12.1576 16.0769C12.1573 15.1699 12.4713 14.2908 13.0462 13.5893C13.6211 12.8877 14.4213 12.407 15.3107 12.229L17.1873 15.9887L15.5902 18.3654C15.4709 18.5444 15.3976 18.7501 15.3768 18.9642C15.356 19.1784 15.3883 19.3943 15.4709 19.593C16.4065 21.8167 18.1756 23.5857 20.3993 24.5213C20.5985 24.6076 20.8161 24.643 21.0325 24.6241C21.2488 24.6053 21.457 24.5329 21.6383 24.4135L24.0265 22.8213L27.7861 24.6979C27.6067 25.5883 27.1239 26.3889 26.4201 26.963C25.7163 27.5371 24.8351 27.8493 23.9268 27.8462ZM20.0037 3C17.0687 2.99936 14.1835 3.75861 11.629 5.20384C9.07449 6.64907 6.93765 8.73105 5.42649 11.2471C3.91533 13.7632 3.08132 16.6277 3.00565 19.5617C2.92998 22.4957 3.61522 25.3994 4.99467 27.99L3.13938 33.5559C2.9857 34.0167 2.9634 34.5112 3.07498 34.984C3.18655 35.4568 3.42759 35.8891 3.77108 36.2326C4.11457 36.5761 4.54694 36.8172 5.01973 36.9287C5.49251 37.0403 5.98702 37.018 6.44784 36.8643L12.0137 35.009C14.2936 36.2217 16.8198 36.899 19.4006 36.9895C21.9813 37.0801 24.5488 36.5815 26.9081 35.5317C29.2674 34.4818 31.3565 32.9083 33.0169 30.9305C34.6773 28.9527 35.8652 26.6226 36.4906 24.1172C37.1161 21.6117 37.1625 18.9967 36.6263 16.4706C36.0902 13.9445 34.9856 11.5738 33.3965 9.53832C31.8073 7.50287 29.7754 5.8562 27.4548 4.7233C25.1342 3.5904 22.5861 3.00106 20.0037 3ZM20.0037 34.3846C17.4749 34.3863 14.9905 33.7204 12.8016 32.4541C12.6413 32.3612 12.4631 32.3034 12.2788 32.2845C12.0945 32.2656 11.9083 32.2861 11.7326 32.3446L5.6191 34.3846L7.65746 28.2712C7.71622 28.0955 7.73698 27.9093 7.71839 27.725C7.69979 27.5407 7.64225 27.3625 7.54958 27.2021C5.96395 24.4607 5.32733 21.2727 5.73847 18.1326C6.14961 14.9924 7.58553 12.0757 9.82347 9.83497C12.0614 7.5942 14.9763 6.1546 18.1159 5.73949C21.2555 5.32438 24.4443 5.95698 27.1877 7.53914C29.9311 9.1213 32.0757 11.5646 33.2888 14.49C34.5019 17.4153 34.7157 20.6593 33.897 23.7186C33.0783 26.7778 31.2729 29.4814 28.7609 31.41C26.2489 33.3385 23.1706 34.3841 20.0037 34.3846Z" fill="#0B0101"/>
</svg>
