<svg xmlns="http://www.w3.org/2000/svg" width="42" height="34" viewBox="0 0 42 34">
  <path fill="#e4e4e4" fill-rule="evenodd" d="M440.446731,2434 C432.840386,2439.38295 425,2445.81909 425,2455.88287 C425,2463.37219 430.14891,2467.936 434.829738,2467.936 C440.32971,2467.936 443.72331,2464.30836 443.72331,2459.97859 C443.72331,2449.68077 433.659531,2456.58499 433.659531,2449.91481 C433.659531,2446.28717 438.5744,2440.31912 442.787145,2437.62764 L440.446731,2434 Z M463.47851,2434 C455.872166,2439.38295 448.031779,2445.81909 448.031779,2455.88287 C448.031779,2463.37219 453.18069,2467.936 457.861517,2467.936 C463.36149,2467.936 466.75509,2464.30836 466.75509,2459.97859 C466.75509,2449.68077 456.69131,2456.58499 456.69131,2449.91481 C456.69131,2446.28717 461.606179,2440.31912 465.818924,2437.62764 L463.47851,2434 Z" transform="translate(-425 -2434)"/>
</svg>