<?xml version="1.0" encoding="UTF-8"?>
<svg id="Layer_4" xmlns="http://www.w3.org/2000/svg" version="1.1" viewBox="0 0 204.62 204.37">
  <!-- Generator: Adobe Illustrator 29.5.1, SVG Export Plug-In . SVG Version: 2.1.0 Build 141)  -->
  <defs>
    <style>
      .st0 {
        fill: none;
        stroke: #cccccb;
        stroke-miterlimit: 10;
      }

      .st1 {
        fill: #cccccb;
      }
    </style>
  </defs>
  <g>
    <path class="st1" d="M6.85,27.25v-2.38l11.57-4.86v1.79l-9.97,4.25,9.97,4.27v1.78l-11.57-4.85Z"/>
    <path class="st1" d="M29.81,31.87c-.38.81-.88,1.4-1.51,1.77s-1.41.55-2.35.55c-1.57,0-2.72-.54-3.45-1.62s-1.1-2.7-1.1-4.87c0-4.39,1.52-6.58,4.56-6.58.94,0,1.72.17,2.35.5.63.33,1.14.88,1.52,1.64h.02l-.02-1.76v-4.87h2.09v14.66c0,1.31.02,2.17.07,2.59h-2c-.03-.12-.06-.4-.08-.85-.02-.45-.04-.84-.04-1.17h-.06ZM23.56,27.64c0,1.72.23,2.97.69,3.76.46.79,1.21,1.18,2.25,1.18,1.13,0,1.97-.41,2.51-1.23s.81-2.12.81-3.9c0-1.67-.26-2.88-.78-3.64-.52-.76-1.36-1.14-2.52-1.14-1.05,0-1.8.4-2.27,1.2-.47.8-.7,2.05-.7,3.77Z"/>
    <path class="st1" d="M42.74,32.24h4.42v1.65h-11.42v-1.65h4.91v-9.28h-3.71v-1.65h5.8v10.93ZM40.42,18.87v-2.23h2.32v2.23h-2.32Z"/>
    <path class="st1" d="M56.68,33.89h-2.48l-5.03-12.58h2.35l3.12,8.18.2.62.6,2.14.41-1.36.45-1.37,3.21-8.21h2.34l-5.16,12.58Z"/>
    <path class="st1" d="M35.59,56.16c0-2.09.5-3.7,1.5-4.82,1-1.12,2.45-1.69,4.34-1.69,1.41,0,2.57.34,3.49,1.02.91.68,1.48,1.59,1.7,2.74l-2.23.16c-.12-.71-.43-1.26-.93-1.67-.5-.41-1.2-.61-2.12-.61-1.22,0-2.12.38-2.69,1.14-.57.76-.85,1.99-.85,3.69s.28,2.98.85,3.77c.57.79,1.46,1.19,2.68,1.19.84,0,1.53-.21,2.08-.62.55-.41.89-1.04,1.02-1.88l2.21.14c-.1.74-.38,1.42-.84,2.03s-1.07,1.09-1.83,1.43c-.76.34-1.61.52-2.55.52-1.9,0-3.34-.56-4.34-1.67-.99-1.12-1.49-2.74-1.49-4.86Z"/>
    <path class="st1" d="M56.92,60.81h4.42v1.65h-11.42v-1.65h4.91v-13.95h-3.36v-1.65h5.45v15.6Z"/>
    <path class="st1" d="M75.45,61.17c.2,0,.43-.03.69-.08v1.3c-.53.12-1.07.19-1.62.19-.78,0-1.34-.2-1.69-.61-.35-.41-.55-1.04-.6-1.91h-.07c-.5.94-1.1,1.61-1.78,2.02s-1.53.62-2.54.62c-1.22,0-2.15-.33-2.77-1s-.93-1.58-.93-2.74c0-2.7,1.76-4.08,5.28-4.12l2.74-.05v-.69c0-1.02-.21-1.75-.62-2.19-.41-.45-1.07-.67-1.96-.67s-1.57.16-1.98.49c-.4.33-.64.83-.72,1.51l-2.19-.2c.36-2.26,2-3.39,4.92-3.39,1.55,0,2.71.36,3.49,1.09s1.17,1.77,1.17,3.14v5.42c0,.62.08,1.09.24,1.4.16.31.47.47.93.47ZM68.37,61.1c.74,0,1.4-.18,1.98-.53.57-.36,1.02-.83,1.34-1.43s.48-1.21.48-1.85v-1.03l-2.21.05c-.91.02-1.61.12-2.09.3s-.85.47-1.12.85c-.27.38-.4.89-.4,1.53s.17,1.15.52,1.53c.34.39.85.58,1.52.58Z"/>
    <path class="st1" d="M89.26,58.87c0,1.19-.45,2.13-1.35,2.81s-2.15,1.02-3.75,1.02-2.81-.25-3.64-.75c-.83-.5-1.38-1.29-1.63-2.37l1.85-.36c.15.67.46,1.15.95,1.46.48.31,1.31.46,2.48.46,2.09,0,3.14-.66,3.14-1.99,0-.5-.19-.9-.57-1.2-.38-.31-.96-.56-1.74-.75-2.05-.5-3.34-.9-3.89-1.19-.55-.29-.97-.65-1.27-1.08-.29-.43-.44-.97-.44-1.61,0-1.14.41-2.03,1.23-2.67.82-.64,2.01-.96,3.57-.96,1.36,0,2.45.26,3.27.77.81.52,1.32,1.27,1.52,2.25l-1.88.23c-.09-.56-.36-.98-.83-1.27-.47-.29-1.16-.43-2.08-.43-1.9,0-2.85.58-2.85,1.76,0,.46.16.84.48,1.12.32.28.84.5,1.55.67l1.38.36c1.26.31,2.17.62,2.73.92.55.3.99.68,1.31,1.13.32.45.48,1.01.48,1.67Z"/>
    <path class="st1" d="M103.55,58.87c0,1.19-.45,2.13-1.35,2.81s-2.15,1.02-3.75,1.02-2.81-.25-3.64-.75c-.83-.5-1.38-1.29-1.63-2.37l1.85-.36c.15.67.46,1.15.95,1.46.48.31,1.31.46,2.48.46,2.09,0,3.14-.66,3.14-1.99,0-.5-.19-.9-.57-1.2-.38-.31-.96-.56-1.74-.75-2.05-.5-3.34-.9-3.89-1.19-.55-.29-.97-.65-1.27-1.08-.29-.43-.44-.97-.44-1.61,0-1.14.41-2.03,1.23-2.67.82-.64,2.01-.96,3.57-.96,1.36,0,2.45.26,3.27.77.81.52,1.32,1.27,1.52,2.25l-1.88.23c-.09-.56-.36-.98-.83-1.27-.47-.29-1.16-.43-2.08-.43-1.9,0-2.85.58-2.85,1.76,0,.46.16.84.48,1.12.32.28.84.5,1.55.67l1.38.36c1.26.31,2.17.62,2.73.92.55.3.99.68,1.31,1.13.32.45.48,1.01.48,1.67Z"/>
    <path class="st1" d="M106.87,52.51v-1.72h11.57v1.72h-11.57ZM106.87,58.46v-1.72h11.57v1.72h-11.57Z"/>
    <path class="st1" d="M39.42,81.21h-1.64l-.48-7.43h2.6l-.49,7.43ZM44.64,81.21h-1.65l-.46-7.43h2.6l-.49,7.43Z"/>
    <path class="st1" d="M54.54,91.03v-7.98c0-1.19-.09-2.03-.28-2.51-.19-.48-.54-.71-1.04-.71s-.9.37-1.2,1.12-.46,1.75-.46,3.02v7.06h-1.96v-9.89c0-1.46-.02-2.36-.07-2.69h1.73l.07,1.48v.56h.02c.26-.79.6-1.37,1-1.73.4-.36.91-.54,1.51-.54.68,0,1.19.19,1.53.56.34.37.58.95.73,1.72h.02c.31-.82.68-1.41,1.11-1.76s.97-.52,1.63-.52c.91,0,1.57.33,1.96,1,.4.67.59,1.81.59,3.43v8.38h-1.95v-7.98c0-1.19-.09-2.03-.28-2.51-.19-.48-.54-.71-1.04-.71s-.92.33-1.21.98-.45,1.63-.45,2.93v7.29h-1.95Z"/>
    <path class="st1" d="M66.05,95.97c-.57,0-1.05-.04-1.44-.13v-1.57c.29.05.62.07.98.07.61,0,1.19-.23,1.73-.69.54-.46.99-1.19,1.37-2.19l.21-.57-5.46-12.45h2.23l3.07,7.46c.71,1.74,1.08,2.72,1.14,2.95l.48-1.28,3.6-9.14h2.21l-5.3,12.58c-.69,1.82-1.4,3.1-2.15,3.84s-1.63,1.1-2.66,1.1Z"/>
    <path class="st1" d="M80.82,85.64v-1.86h6.51v1.86h-6.51Z"/>
    <path class="st1" d="M103.9,84.68c0,2.2-.39,3.85-1.18,4.94s-1.91,1.64-3.38,1.64c-1.89,0-3.19-.71-3.88-2.14h-.02c0,.37-.01.76-.04,1.16-.03.4-.05.65-.06.74h-2.02c.05-.42.07-1.28.07-2.59v-14.66h2.09v4.92c0,.5-.02,1.11-.05,1.83h.05c.71-1.55,2-2.33,3.88-2.33,3.03,0,4.55,2.16,4.55,6.49ZM101.74,84.75c0-1.74-.24-2.99-.71-3.77-.48-.78-1.22-1.17-2.24-1.17-1.16,0-2,.42-2.52,1.27s-.79,2.13-.79,3.85c0,1.62.26,2.82.77,3.6.51.78,1.35,1.17,2.52,1.17,1.05,0,1.8-.41,2.27-1.21.47-.81.7-2.06.7-3.75Z"/>
    <path class="st1" d="M109.26,85.18c0,1.41.31,2.52.94,3.31.62.8,1.48,1.2,2.56,1.2.8,0,1.5-.17,2.1-.52.6-.35,1-.82,1.2-1.41l1.84.52c-.34.96-.97,1.7-1.88,2.21-.91.51-2,.77-3.26.77-1.83,0-3.24-.57-4.22-1.71-.98-1.14-1.48-2.77-1.48-4.89s.48-3.66,1.45-4.77c.96-1.11,2.36-1.67,4.18-1.67s3.2.55,4.14,1.66c.94,1.11,1.41,2.78,1.41,5.02v.28h-8.98ZM112.71,79.77c-1.04,0-1.86.34-2.46,1.02s-.93,1.61-.96,2.8h6.79c-.22-2.54-1.34-3.81-3.36-3.81Z"/>
    <path class="st1" d="M132.6,89.74c.2,0,.43-.03.69-.08v1.3c-.53.12-1.07.19-1.62.19-.78,0-1.34-.2-1.69-.61-.35-.41-.55-1.04-.6-1.91h-.07c-.5.94-1.1,1.61-1.78,2.02s-1.53.62-2.54.62c-1.22,0-2.15-.33-2.77-1s-.93-1.58-.93-2.74c0-2.7,1.76-4.08,5.28-4.12l2.74-.05v-.69c0-1.02-.21-1.75-.62-2.19-.41-.45-1.07-.67-1.96-.67s-1.57.16-1.98.49c-.4.33-.64.83-.72,1.51l-2.19-.2c.36-2.26,2-3.39,4.92-3.39,1.55,0,2.71.36,3.49,1.09s1.17,1.77,1.17,3.14v5.42c0,.62.08,1.09.24,1.4.16.31.47.47.93.47ZM125.52,89.67c.74,0,1.4-.18,1.98-.53.57-.36,1.02-.83,1.34-1.43s.48-1.21.48-1.85v-1.03l-2.21.05c-.91.02-1.61.12-2.09.3s-.85.47-1.12.85c-.27.38-.4.89-.4,1.53s.17,1.15.52,1.53c.34.39.85.58,1.52.58Z"/>
    <path class="st1" d="M138.34,78.45v7.98c0,1.21.19,2.05.57,2.52.38.47,1.06.7,2.03.7s1.79-.34,2.37-1.02c.58-.68.87-1.64.87-2.88v-7.29h2.1v9.89c0,1.46.02,2.36.07,2.69h-1.98s-.02-.14-.02-.31-.02-.37-.03-.59c-.01-.22-.03-.64-.04-1.25h-.03c-.48.87-1.04,1.48-1.67,1.84s-1.42.54-2.35.54c-1.38,0-2.39-.34-3.03-1.03-.64-.69-.96-1.82-.96-3.4v-8.38h2.09Z"/>
    <path class="st1" d="M150.59,80.1v-1.65h1.98l.67-3.28h1.4v3.28h5.02v1.65h-5.02v7.58c0,.61.16,1.07.49,1.36.33.29.87.44,1.62.44,1.04,0,2.19-.13,3.45-.4v1.59c-1.31.36-2.61.53-3.89.53s-2.2-.27-2.83-.8-.94-1.37-.94-2.52v-7.8h-1.95Z"/>
    <path class="st1" d="M166.06,95.97c-.57,0-1.05-.04-1.44-.13v-1.57c.29.05.62.07.98.07.61,0,1.19-.23,1.73-.69.54-.46.99-1.19,1.37-2.19l.21-.57-5.46-12.45h2.23l3.07,7.46c.71,1.74,1.08,2.72,1.14,2.95l.48-1.28,3.6-9.14h2.21l-5.3,12.58c-.69,1.82-1.4,3.1-2.15,3.84s-1.63,1.1-2.66,1.1Z"/>
    <path class="st1" d="M182.29,81.21h-1.64l-.48-7.43h2.6l-.49,7.43ZM187.51,81.21h-1.65l-.46-7.43h2.6l-.49,7.43Z"/>
    <path class="st1" d="M6.85,117.81v-1.78l9.97-4.27-9.97-4.25v-1.79l11.57,4.86v2.38l-11.57,4.85Z"/>
  </g>
  <g>
    <path class="st1" d="M8.2,180.87v-2.38l11.57-4.86v1.79l-9.97,4.25,9.97,4.27v1.78l-11.57-4.85Z"/>
    <path class="st1" d="M22.46,187.74l9.54-17.48h2.07l-9.5,17.48h-2.12Z"/>
    <path class="st1" d="M45.45,185.48c-.38.81-.88,1.4-1.51,1.77s-1.41.55-2.35.55c-1.57,0-2.72-.54-3.45-1.62s-1.1-2.7-1.1-4.87c0-4.39,1.52-6.58,4.56-6.58.94,0,1.72.17,2.35.5.63.33,1.14.88,1.52,1.64h.02l-.02-1.76v-4.87h2.09v14.66c0,1.31.02,2.17.07,2.59h-2c-.03-.12-.06-.4-.08-.85-.02-.45-.04-.84-.04-1.17h-.06ZM39.19,181.25c0,1.72.23,2.97.69,3.76.46.79,1.21,1.18,2.25,1.18,1.13,0,1.97-.41,2.51-1.23s.81-2.12.81-3.9c0-1.67-.26-2.88-.78-3.64-.52-.76-1.36-1.14-2.52-1.14-1.05,0-1.8.4-2.27,1.2-.47.8-.7,2.05-.7,3.77Z"/>
    <path class="st1" d="M58.38,185.86h4.42v1.65h-11.42v-1.65h4.91v-9.28h-3.71v-1.65h5.8v10.93ZM56.05,172.49v-2.23h2.32v2.23h-2.32Z"/>
    <path class="st1" d="M72.31,187.51h-2.48l-5.03-12.58h2.35l3.12,8.18.2.62.6,2.14.41-1.36.45-1.37,3.21-8.21h2.34l-5.16,12.58Z"/>
    <path class="st1" d="M79.64,185.72v-1.78l9.97-4.27-9.97-4.25v-1.79l11.57,4.86v2.38l-11.57,4.85Z"/>
  </g>
  <rect class="st0" x="2.62" y="128.18" width="200.19" height="31.65"/>
</svg>