<?xml version="1.0" encoding="UTF-8"?>
<svg id="Layer_5" xmlns="http://www.w3.org/2000/svg" version="1.1" viewBox="0 0 204.62 204.37">
  <!-- Generator: Adobe Illustrator 29.5.1, SVG Export Plug-In . SVG Version: 2.1.0 Build 141)  -->
  <defs>
    <style>
      .st0 {
        fill: none;
        stroke: #cccccb;
        stroke-linecap: round;
        stroke-linejoin: round;
      }
    </style>
  </defs>
  <path class="st0" d="M128.78,98c-1.05-.84-1.25-2.22-.47-3.21.78-.99,2.49-1.52,3.98-1.23,1.1.21,1.99.8,2.83,1.37,5.4,3.64,10.91,7.38,14.28,12.2.52.74.99,1.53.98,2.36,0,.83-.62,1.72-1.68,1.97-1.25.3-2.53-.33-3.58-.93-4-2.31-8-4.61-12-6.92"/>
  <path class="st0" d="M146.27,111.81c.35.88.37,1.84.05,2.73-.2.56-.62,1.15-1.36,1.3-.53.11-1.08-.03-1.59-.18-4.66-1.39-8.82-3.71-11.93-6.66"/>
  <path class="st0" d="M145.07,117.01c.23,1.3,1.74,2.64.82,3.75-.77.92-2.59.81-3.96.47-4.62-1.16-8.4-3.64-12.05-6.06"/>
  <path class="st0" d="M143.98,122.24c.11,1.08.21,2.17.32,3.25.09.97-.01,2.19-1.21,2.55-.71.21-1.51,0-2.21-.22-6.13-1.93-11.61-5.02-15.78-8.9-.86-.8-1.7-1.71-1.74-2.74-.03-1.03,1.12-2.13,2.47-1.97-1.27-1.02-2.6-2.13-2.9-3.51s.97-3.04,2.83-2.98c-2.18-1.15-3.27-3.35-2.6-5.29.67-1.94,3.04-3.47,5.69-3.68"/>
  <path class="st0" d="M129.98,93.26"/>
  <path class="st0" d="M135.47,94.35c5.1-.33,10.34.65,14.65,2.72-2.68-5.24-3.99-11.5.08-16.21.69-.8,1.64-1.59,2.91-1.73,1.53-.17,2.99.69,3.63,1.75s.66,2.25.69,3.41c.19,9.38,1.01,18.74,3.32,27.95"/>
  <path class="st0" d="M159.89,108.43c2.31,10.61,5.27,21.14,8.88,31.54"/>
  <path class="st0" d="M166.8,136.33c1.72,2.01,3.17,4.16,4.3,6.39"/>
  <path class="st0" d="M144.42,151.95c-1.62-.85-4.15-.37-5.14.92-.99,1.29-.39,3.09,1.22,3.97,1.6.87,3.97.79,5.55-.1,1.6-.9,2.35-2.64,1.49-4-.85-1.35-3.39-2-5.04-1.15"/>
  <path class="st0" d="M153.19,149.56c-.89-.53-2.24-.44-3.18.04-1.72.88-2.02,2.94-.68,4.14,1.33,1.2,3.95,1.39,5.65.48s2.33-2.74,1.56-4.2c-.5-.96-1.95-1.81-3.18-1.35"/>
  <path class="st0" d="M161.69,146.65c-1.79-.44-3.9.59-4.22,1.98s1.07,2.85,2.9,3.17c1.83.32,3.86-.44,4.75-1.69.69-.98.69-2.27-.25-3.14-.93-.86-2.83-1.1-3.94-.37"/>
  <path class="st0" d="M170.05,144.64c-.09-.38-.57-.68-1.07-.69-1.82.1-3.34,1.44-3.25,2.81.1,1.37,1.74,2.57,3.57,2.64,1.83.07,3.61-.95,4.05-2.28.27-.8.06-1.71-.71-2.3-.77-.59-2.12-.73-2.98-.22"/>
  <path class="st0" d="M170.96,144c-.55-.71-.1-1.7.81-2.16.91-.46,2.14-.45,3.15-.14,1.93.58,3.2,2.21,2.91,3.75-.28,1.55-2.09,2.86-4.16,3.02"/>
  <path class="st0" d="M135.04,126.17c1.37,1.71,1.74,3.76,2.08,5.73,1.17,6.82,2.33,13.65,3.5,20.47"/>
  <path class="st0" d="M141.19,158.16c1.39,12.88,2.35,25.78,2.87,38.69"/>
  <path class="st0" d="M140.98,157.34c.2,1.2.41,2.4.61,3.6"/>
  <path class="st0" d="M172.81,148.97c.5.68.84,1.43,1.17,2.16,3.56,7.94,7.11,15.88,10.67,23.82"/>
  <path class="st0" d="M181.32,169.01c6.2,8.56,11.46,17.5,15.71,26.7"/>
  <path class="st0" d="M136.63,78.62c.38,6.45.69,11.63,1.08,18.08"/>
  <path class="st0" d="M141.22,128.62c.41,3.96.82,7.91,1.22,11.87"/>
  <path class="st0" d="M125.82,141.7c5.27-1.26,10.74-1.99,16.19-2.71,4.66-.62,9.32-1.23,13.99-1.85"/>
  <path class="st0" d="M148.02,138.17c3.4-.42,6.81-.84,10.21-1.26"/>
  <path class="st0" d="M114.91,39.6c.67,10.46,3.75,20.84,9.07,30.53,1.4,2.55,3.04,5.14,5.86,6.92,2.82,1.77,7.12,2.5,10.21,1,3.12-1.51,3.99-4.6,4.46-7.36,1.95-11.5,1.77-23.19-.54-34.65"/>
  <path class="st0" d="M115.21,39.85c9.7-1.64,19.52-2.88,29.4-3.68"/>
  <path class="st0" d="M120,61.71c8.35-1.41,16.86-2.3,25.41-2.66"/>
  <path class="st0" d="M102.52,14.72c2.45,2.48,4.16,5.36,4.97,8.38"/>
  <path class="st0" d="M119.42,11.22c-.25,4.16-.86,8.3-1.81,12.4"/>
  <path class="st0" d="M128.58,23.42c3.39-3.49,7.02-6.84,10.89-10.03"/>
  <path class="st0" d="M91.59,96.78c1.17-.75.52-2.44-.12-3.5-.64-1.05-2.25-1.71-3.77-1.54-1.12.12-2.09.64-3.02,1.13-5.89,3.17-11.91,6.44-15.96,10.96-.62.69-1.21,1.44-1.32,2.27-.11.83.37,1.76,1.38,2.1,1.2.4,2.57-.12,3.69-.64,4.31-1.96,8.62-3.93,12.94-5.89"/>
  <path class="st0" d="M71.16,108.74c-.48.85-.63,1.8-.45,2.71.12.57.45,1.19,1.16,1.4.51.15,1.08.06,1.61-.05,4.84-1,2.94-1,7.12-2.29"/>
  <path class="st0" d="M71.59,114c-.41,1.27-2.12,2.48-1.36,3.66.63.98,2.46,1.02,3.87.79,4.76-.77,7.17-1.62,11.15-3.73"/>
  <path class="st0" d="M71.92,119.29c-.26,1.07-.52,2.14-.79,3.2-.23.95-.31,2.18.83,2.63.67.27,1.5.13,2.23-.04,6.37-1.42,12.27-4.04,16.98-7.56.97-.73,1.94-1.56,2.12-2.58.18-1.02-.8-2.21-2.17-2.16,1.41-.91,2.9-1.9,3.39-3.25.5-1.35-.53-3.1-2.38-3.2,2.33-.96,3.73-3.07,3.35-5.04-.38-1.98-1.47-2.91-4.07-3.33"/>
  <path class="st0" d="M95.12,100.36c-.66-1.8-4.04-2.65-6.01-1.51"/>
  <path class="st0" d="M58.1,104.26c-4.66,10.83-10.17,21.5-16.5,31.97"/>
  <path class="st0" d="M82.33,123.44c-1.23,1.3-1.75,2.93-2.24,4.5-1.68,5.44-3.36,10.88-5.04,16.32"/>
  <path class="st0" d="M81.28,94.63l4.84-18.03"/>
  <path class="st0" d="M70.8,137.56"/>
  <path class="st0" d="M74,124.03"/>
  <path class="st0" d="M73.49,124.11c-1.07,4.51-2.14,9.02-3.2,13.53"/>
  <path class="st0" d="M86.93,141.04c-5.06-1.69-10.39-2.85-15.7-4.01-4.54-.99-9.09-1.99-13.63-2.98"/>
  <path class="st0" d="M65.59,135.84c-3.32-.7-6.64-1.39-9.97-2.09"/>
  <path class="st0" d="M112.8,39.51c-2.19,10.35-6.75,20.41-13.44,29.6-1.76,2.42-3.77,4.86-6.83,6.4-3.06,1.53-7.44,1.9-10.3.16-2.89-1.75-3.3-4.89-3.37-7.68-.27-11.59,1.61-23.2,5.56-34.4"/>
  <path class="st0" d="M112.47,39.74c-9.4-2.43-18.98-4.45-28.69-6.06"/>
  <path class="st0" d="M104.53,61.08c-8.1-2.08-16.43-3.67-24.87-4.72"/>
  <path class="st0" d="M81.48,56.69c-.47-.14-.93-.29-1.4-.43"/>
  <path class="st0" d="M35.8,144.8c-9.41,15.58-18.81,31.16-28.22,46.73"/>
  <path class="st0" d="M41.02,135.89c11.35,2.65,22.7,5.31,33.87,8.36"/>
  <path class="st0" d="M35.27,145.01c13.76,1.78,27.22,4.84,39.99,9.09.01-2.81,1.07-5.62,3.02-8.03"/>
  <path class="st0" d="M72.27,151.64c-5.2,17.48-11.67,34.75-19.4,51.72"/>
  <path class="st0" d="M56.92,107.36c1.83-3.62,3.81-7.19,5.94-10.72.87-1.44,1.79-2.9,3.19-4.08,1.22-1.03,2.76-1.82,4.3-2.58,4.07-2,8.25-3.87,12.53-5.59,1.15-.46,2.35-.92,3.65-.97,1.3-.05,2.73.44,3.15,1.37.4.88-.19,1.84-.82,2.64-2.35,3.02-5.36,5.76-8.86,8.06"/>
  <path class="st0" d="M92.62,95.68"/>
  <path class="st0" d="M80.6,103.96"/>
  <path class="st0" d="M91.41,111.8"/>
  <path class="st0" d="M81.88,116.06"/>
  <path class="st0" d="M79.83,110.82c4.74-1.55,9.27-3.44,13.53-5.64"/>
  <path class="st0" d="M68.78,116.74"/>
  <path class="st0" d="M72.77,112.63"/>
  <path class="st0" d="M31.76,145.14l5.78-11.4"/>
  <path class="st0" d="M78.67,55.42c7.83,3.48,18.5,2.03,25.85,6.05"/>
  <path class="st0" d="M41.33,135.53c-.15,0-.09.2.05.2.15,0,.24-.11.31-.21,1.32-1.92,2.63-3.84,3.95-5.76"/>
  <path class="st0" d="M140.52,152.08c1.46-.45,3.05-.91,4.58-.62,1.89.36,3.15,2,2.64,3.41"/>
  <path class="st0" d="M168.35,144.2c.92-.46,2.16-.54,3.16-.19s1.73,1.11,1.85,1.93"/>
  <path class="st0" d="M174.96,147.96c-.75.26-1.66.25-2.4-.04"/>
  <path class="st0" d="M172.79,148.14c.45,1.13.9,2.25,1.35,3.38"/>
  <path class="st0" d="M75.74,144.15c.18-1.76.64-3.5,1.37-5.17"/>
</svg>