<?xml version="1.0" encoding="UTF-8"?>
<svg id="Layer_1" xmlns="http://www.w3.org/2000/svg" version="1.1" viewBox="0 0 204.62 204.37">
  <!-- Generator: Adobe Illustrator 29.5.1, SVG Export Plug-In . SVG Version: 2.1.0 Build 141)  -->
  <defs>
    <style>
      .st0 {
        fill: none;
        stroke: #cccccb;
        stroke-miterlimit: 10;
      }

      .st1 {
        fill: #cccccb;
      }
    </style>
  </defs>
  <rect class="st0" x="2.21" y="46.76" width="200.19" height="31.65"/>
  <rect class="st0" x="2.21" y="127.27" width="200.19" height="31.65"/>
  <rect class="st1" x="45.77" y="87.52" width="156.63" height="31.65"/>
  <g>
    <polyline class="st0" points="2.21 86.9 2.21 103.34 26.55 102.99"/>
    <polygon class="st1" points="25.16 108 33.73 102.89 25.02 98.03 25.16 108"/>
  </g>
  <g>
    <path class="st1" d="M6.43,28.29v-2.42l11.74-4.93v1.82l-10.12,4.32,10.12,4.33v1.81l-11.74-4.92Z"/>
    <path class="st1" d="M21.75,17.52h2.14v4.6c0,.46-.04,1.24-.11,2.32h.04c.83-1.61,2.16-2.42,4-2.42,2.75,0,4.13,1.5,4.13,4.5v8.51h-2.14v-8.2c0-1.07-.21-1.86-.62-2.38-.41-.52-1.07-.78-1.98-.78-.98,0-1.78.36-2.4,1.07s-.94,1.68-.94,2.9v7.4h-2.12v-17.51Z"/>
    <path class="st1" d="M37.86,29.09c0,1.43.32,2.55.95,3.36.63.81,1.5,1.22,2.6,1.22.81,0,1.52-.17,2.13-.52.61-.35,1.02-.83,1.22-1.43l1.86.53c-.35.98-.98,1.72-1.91,2.24-.92.52-2.03.78-3.31.78-1.86,0-3.28-.58-4.28-1.73-1-1.16-1.5-2.81-1.5-4.97s.49-3.71,1.47-4.84c.98-1.13,2.39-1.69,4.24-1.69s3.25.56,4.2,1.69c.95,1.12,1.43,2.82,1.43,5.1v.28h-9.11ZM41.37,23.59c-1.05,0-1.89.34-2.5,1.03-.61.69-.94,1.63-.98,2.84h6.89c-.22-2.58-1.36-3.87-3.41-3.87Z"/>
    <path class="st1" d="M61.56,33.72c.2,0,.44-.03.7-.08v1.32c-.54.13-1.08.19-1.64.19-.79,0-1.36-.21-1.72-.62s-.56-1.06-.61-1.94h-.07c-.51.95-1.11,1.64-1.81,2.05-.7.42-1.56.62-2.58.62-1.24,0-2.18-.34-2.81-1.01-.63-.68-.94-1.6-.94-2.78,0-2.75,1.79-4.14,5.36-4.18l2.78-.05v-.7c0-1.03-.21-1.77-.62-2.22-.42-.45-1.08-.68-1.99-.68s-1.6.17-2.01.5c-.41.33-.65.84-.73,1.53l-2.22-.2c.36-2.3,2.03-3.45,4.99-3.45,1.57,0,2.76.37,3.55,1.1.79.74,1.19,1.8,1.19,3.19v5.5c0,.63.08,1.1.25,1.42.17.32.48.48.94.48ZM54.37,33.64c.75,0,1.42-.18,2.01-.54.58-.36,1.03-.85,1.36-1.45.32-.61.48-1.23.48-1.88v-1.05l-2.24.05c-.93.02-1.64.12-2.12.31-.49.19-.87.48-1.14.87-.27.39-.41.91-.41,1.55s.17,1.16.52,1.56c.35.39.86.59,1.54.59Z"/>
    <path class="st1" d="M73.24,32.97c-.39.83-.9,1.43-1.53,1.8-.64.37-1.43.56-2.38.56-1.59,0-2.76-.55-3.5-1.64-.75-1.09-1.12-2.74-1.12-4.94,0-4.45,1.54-6.68,4.62-6.68.95,0,1.75.17,2.39.51.64.34,1.15.89,1.54,1.66h.02l-.02-1.78v-4.94h2.12v14.88c0,1.33.02,2.21.07,2.63h-2.03c-.03-.12-.06-.41-.08-.86s-.04-.85-.04-1.19h-.06ZM66.89,28.68c0,1.75.23,3.02.7,3.82.47.8,1.23,1.2,2.28,1.2,1.15,0,2-.41,2.55-1.24.55-.83.83-2.15.83-3.96,0-1.69-.27-2.92-.8-3.69-.53-.77-1.38-1.16-2.55-1.16-1.06,0-1.83.41-2.3,1.22-.47.81-.71,2.08-.71,3.82Z"/>
    <path class="st1" d="M78.94,33.21v-1.81l10.12-4.33-10.12-4.32v-1.82l11.74,4.93v2.42l-11.74,4.92Z"/>
  </g>
  <g>
    <path class="st1" d="M5.06,179.25v-2.61l12.66-5.32v1.96l-10.92,4.66,10.92,4.67v1.95l-12.66-5.31Z"/>
    <path class="st1" d="M20.67,186.77l10.45-19.14h2.26l-10.4,19.14h-2.32Z"/>
    <path class="st1" d="M37.21,167.64h2.3v4.96c0,.5-.04,1.34-.11,2.51h.04c.89-1.74,2.33-2.61,4.31-2.61,2.97,0,4.45,1.62,4.45,4.85v9.17h-2.3v-8.84c0-1.15-.22-2.01-.67-2.57s-1.16-.84-2.13-.84c-1.05,0-1.92.38-2.59,1.15-.67.77-1.01,1.81-1.01,3.12v7.98h-2.29v-18.88Z"/>
    <path class="st1" d="M54.6,180.12c0,1.54.34,2.75,1.02,3.63.68.87,1.62,1.31,2.81,1.31.87,0,1.64-.19,2.3-.57.66-.38,1.1-.89,1.32-1.55l2.01.57c-.37,1.05-1.06,1.86-2.06,2.42-1,.56-2.19.84-3.57.84-2,0-3.54-.62-4.62-1.87-1.08-1.25-1.62-3.03-1.62-5.36s.53-4.01,1.58-5.22,2.58-1.83,4.57-1.83,3.5.61,4.53,1.82c1.03,1.21,1.54,3.05,1.54,5.5v.31h-9.82ZM58.38,174.19c-1.14,0-2.04.37-2.7,1.11s-1.01,1.76-1.06,3.06h7.43c-.24-2.78-1.46-4.17-3.68-4.17Z"/>
    <path class="st1" d="M80.15,185.11c.22,0,.47-.03.75-.09v1.43c-.58.14-1.17.2-1.77.2-.85,0-1.47-.22-1.85-.67-.39-.45-.6-1.14-.66-2.09h-.08c-.55,1.03-1.2,1.76-1.95,2.21-.75.45-1.68.67-2.78.67-1.34,0-2.35-.36-3.03-1.09s-1.02-1.73-1.02-3c0-2.96,1.93-4.46,5.78-4.5l3-.05v-.75c0-1.11-.22-1.91-.67-2.4s-1.17-.73-2.15-.73-1.72.18-2.16.53c-.44.36-.7.91-.79,1.65l-2.39-.22c.39-2.48,2.18-3.72,5.38-3.72,1.7,0,2.97.4,3.82,1.19.85.79,1.28,1.94,1.28,3.44v5.93c0,.68.09,1.19.27,1.53.18.34.52.52,1.02.52ZM72.4,185.03c.81,0,1.54-.2,2.16-.59.63-.39,1.12-.91,1.46-1.57.35-.65.52-1.33.52-2.02v-1.13l-2.42.05c-1,.02-1.76.13-2.29.33-.53.2-.94.52-1.23.94-.29.42-.44.98-.44,1.67s.19,1.26.57,1.68.93.64,1.66.64Z"/>
    <path class="st1" d="M92.75,184.31c-.42.89-.97,1.54-1.65,1.94s-1.54.6-2.57.6c-1.71,0-2.97-.59-3.78-1.77s-1.21-2.96-1.21-5.33c0-4.8,1.66-7.2,4.99-7.2,1.03,0,1.89.18,2.58.55s1.25.96,1.66,1.79h.03l-.03-1.92v-5.33h2.29v16.05c0,1.43.03,2.38.08,2.84h-2.19c-.03-.13-.06-.44-.09-.93-.03-.49-.04-.92-.04-1.29h-.06ZM85.9,179.67c0,1.88.25,3.26.76,4.12.5.86,1.33,1.29,2.46,1.29,1.24,0,2.15-.45,2.75-1.34.59-.9.89-2.32.89-4.27,0-1.82-.29-3.15-.86-3.98s-1.49-1.25-2.75-1.25c-1.15,0-1.97.44-2.48,1.31-.51.87-.76,2.25-.76,4.12Z"/>
    <path class="st1" d="M98.89,184.56v-1.95l10.92-4.67-10.92-4.66v-1.96l12.66,5.32v2.61l-12.66,5.31Z"/>
  </g>
</svg>