<?xml version="1.0" encoding="UTF-8"?>
<svg id="Layer_3" xmlns="http://www.w3.org/2000/svg" version="1.1" viewBox="0 0 204.62 204.37">
  <!-- Generator: Adobe Illustrator 29.5.1, SVG Export Plug-In . SVG Version: 2.1.0 Build 141)  -->
  <defs>
    <style>
      .st0 {
        stroke: #cccbca;
        stroke-miterlimit: 10;
      }

      .st0, .st1 {
        fill: none;
      }

      .st1 {
        stroke: #ccc;
        stroke-linejoin: round;
        stroke-width: 1.5px;
      }
    </style>
  </defs>
  <path class="st1" d="M197.92,26.24H6.7c-2.36,0-4.27,1.91-4.27,4.27v110.58c0,2.36,1.91,4.27,4.27,4.27h68.07v26.64h-9.99v6.12h76.35v-6.12h-10.01v-26.64h66.8c2.36,0,4.27-1.91,4.27-4.27V30.51c0-2.36-1.91-4.27-4.27-4.27Z"/>
  <rect class="st0" x="9.91" y="34.63" width="41.6" height="21.45"/>
  <rect class="st0" x="56.76" y="34.63" width="137.06" height="21.45"/>
  <rect class="st0" x="9.91" y="61.15" width="41.6" height="48.7"/>
  <rect class="st0" x="152.22" y="61.15" width="41.6" height="48.7"/>
  <rect class="st0" x="56.76" y="61.15" width="89.6" height="48.7"/>
  <rect class="st0" x="9.91" y="115.28" width="183.91" height="21.45"/>
</svg>