<?xml version="1.0" encoding="utf-8"?>
<!-- Generator: Adobe Illustrator 26.3.1, SVG Export Plug-In . SVG Version: 6.00 Build 0)  -->
<svg version="1.1" id="Layer_1" xmlns="http://www.w3.org/2000/svg" xmlns:xlink="http://www.w3.org/1999/xlink" x="0px" y="0px"
	 viewBox="0 0 194.62 62.79" style="enable-background:new 0 0 194.62 62.79;" xml:space="preserve">
<style type="text/css">
	.st0{fill:#00FF4E;}
	.st1{fill:#FFFFFF;}
</style>
<g>
	<g>
		<rect x="33.85" y="33.85" class="st0" width="8.46" height="8.46"/>
		<polygon class="st1" points="0,0 0,8.46 33.85,8.46 33.85,16.93 0,16.93 0,42.31 8.46,42.31 8.46,25.38 25.38,25.38 25.39,33.86 
			33.85,33.86 33.85,25.38 42.31,25.38 42.31,0 		"/>
		<g>
			<rect x="152.31" class="st1" width="42.31" height="8.46"/>
			<polygon class="st1" points="152.31,16.93 152.31,42.31 194.62,42.31 194.62,33.86 160.77,33.86 160.77,25.39 160.77,25.38 
				194.62,25.38 194.62,16.93 			"/>
		</g>
		<g>
			<polygon class="st1" points="101.54,0 101.54,8.46 135.39,8.46 135.39,16.93 101.54,16.93 101.54,42.31 110,42.31 110,25.38 
				126.93,25.38 126.93,33.86 135.39,33.86 135.39,25.38 143.85,25.38 143.85,0 			"/>
			<rect x="135.39" y="33.86" class="st1" width="8.46" height="8.46"/>
		</g>
		<path class="st1" d="M50.77,0v42.31h8.46V25.39v-0.01h25.39v0.01v16.92h8.46V0H50.77z M84.62,16.93h-8.46h-8.47h-8.46V8.47h8.46
			h8.46h0.01h8.46V16.93z"/>
	</g>
	<g>
		<path class="st1" d="M0,51.75h9.34c0.79,0,1.47,0.28,2.04,0.85c0.57,0.56,0.85,1.24,0.85,2.04v5.26c0,0.79-0.28,1.47-0.85,2.04
			s-1.25,0.85-2.04,0.85H0V51.75z M3.23,54.63v5.26h5.09c0.19,0,0.35-0.07,0.48-0.2s0.19-0.29,0.19-0.48v-3.9
			c0-0.19-0.06-0.35-0.19-0.48c-0.13-0.13-0.29-0.19-0.48-0.19L3.23,54.63L3.23,54.63z"/>
		<path class="st1" d="M13.49,51.75h3.23v11.03h-3.23V51.75z"/>
		<path class="st1" d="M20.88,51.75h6.45c0.79,0,1.47,0.28,2.04,0.85c0.57,0.56,0.85,1.24,0.85,2.04v1.1h-3.23v-0.42
			c0-0.19-0.06-0.35-0.19-0.48c-0.13-0.13-0.29-0.19-0.48-0.19H21.9c-0.19,0-0.35,0.07-0.48,0.19c-0.13,0.13-0.19,0.29-0.19,0.48
			v3.9c0,0.19,0.06,0.35,0.19,0.48c0.13,0.13,0.29,0.2,0.48,0.2h4.41c0.19,0,0.35-0.07,0.48-0.2s0.19-0.29,0.19-0.48v-0.58h-4.07
			v-2.31h7.3v3.56c0,0.79-0.28,1.47-0.85,2.04s-1.25,0.85-2.04,0.85h-6.45c-0.79,0-1.47-0.28-2.04-0.85s-0.85-1.25-0.85-2.04v-5.26
			c0-0.79,0.28-1.47,0.85-2.04C19.41,52.03,20.08,51.75,20.88,51.75z"/>
		<path class="st1" d="M31.48,51.75h3.23v11.03h-3.23V51.75z"/>
		<path class="st1" d="M35.9,51.75h12.22v2.75h-4.5v8.28h-3.23V54.5h-4.5v-2.75H35.9z"/>
		<path class="st1" d="M52.36,51.75h6.36c0.79,0,1.47,0.28,2.04,0.85c0.57,0.56,0.85,1.24,0.85,2.04v0.93h-3.22v-0.26
			c-0.02-0.19-0.1-0.35-0.22-0.48c-0.12-0.13-0.28-0.19-0.46-0.19H53.3c-0.4,0-0.59,0.17-0.59,0.51v0.15c0,0.22,0.31,0.37,0.94,0.47
			c0.63,0.1,1.39,0.18,2.29,0.24s1.8,0.16,2.7,0.3s1.66,0.42,2.29,0.82c0.63,0.41,0.94,0.94,0.94,1.59v1.17
			c0,0.79-0.28,1.47-0.85,2.04s-1.25,0.85-2.04,0.85h-6.62c-0.79,0-1.47-0.28-2.04-0.85s-0.85-1.25-0.85-2.04v-0.93h3.23v0.26
			c0,0.19,0.06,0.35,0.19,0.48c0.13,0.13,0.29,0.2,0.48,0.2h4.67c0.4,0,0.59-0.17,0.59-0.51v-0.15c0-0.22-0.31-0.37-0.94-0.45
			c-0.63-0.08-1.39-0.16-2.29-0.21c-0.9-0.06-1.8-0.15-2.7-0.28c-0.9-0.13-1.66-0.4-2.29-0.82s-0.94-0.97-0.94-1.66v-1.17
			c0-0.79,0.28-1.47,0.85-2.04C50.89,52.03,51.57,51.75,52.36,51.75z"/>
		<path class="st1" d="M70.01,51.75h9.34c0.79,0,1.47,0.28,2.04,0.85c0.57,0.56,0.85,1.24,0.85,2.04v2.2c0,0.79-0.28,1.47-0.85,2.04
			c-0.57,0.56-1.25,0.85-2.04,0.85h-6.11v3.05h-3.23V51.75z M73.24,54.63v2.2h5.09c0.19,0,0.35-0.06,0.48-0.19
			c0.13-0.13,0.19-0.29,0.19-0.48v-0.85c0-0.19-0.06-0.35-0.19-0.48c-0.13-0.13-0.29-0.19-0.48-0.19L73.24,54.63L73.24,54.63z"/>
		<path class="st1" d="M83.42,51.75h9.34c0.79,0,1.47,0.28,2.04,0.85c0.57,0.56,0.85,1.24,0.85,2.04v2.04
			c0,0.65-0.19,1.22-0.58,1.73s-0.88,0.85-1.48,1.03l2.48,3.34H92.4l-2.38-3.22h-3.38v3.22h-3.23L83.42,51.75L83.42,51.75z
			 M86.64,54.63v2.04h5.09c0.19,0,0.35-0.07,0.48-0.19c0.13-0.13,0.19-0.29,0.19-0.48v-0.68c0-0.19-0.06-0.35-0.19-0.48
			c-0.13-0.13-0.29-0.19-0.48-0.19h-5.09V54.63z"/>
		<path class="st1" d="M99.92,51.75h6.45c0.79,0,1.47,0.28,2.04,0.85c0.57,0.56,0.85,1.24,0.85,2.04v5.26
			c0,0.79-0.28,1.47-0.85,2.04s-1.25,0.85-2.04,0.85h-6.45c-0.79,0-1.47-0.28-2.04-0.85c-0.57-0.57-0.85-1.25-0.85-2.04v-5.26
			c0-0.79,0.28-1.47,0.85-2.04C98.45,52.03,99.12,51.75,99.92,51.75z M100.93,54.63c-0.19,0-0.35,0.07-0.48,0.19
			c-0.13,0.13-0.19,0.29-0.19,0.48v3.9c0,0.19,0.06,0.35,0.19,0.48c0.13,0.13,0.29,0.2,0.48,0.2h4.41c0.19,0,0.35-0.07,0.48-0.2
			c0.13-0.13,0.19-0.29,0.19-0.48v-3.9c0-0.19-0.06-0.35-0.19-0.48c-0.13-0.13-0.29-0.19-0.48-0.19
			C105.34,54.63,100.93,54.63,100.93,54.63z"/>
		<path class="st1" d="M110.52,51.75h9.34c0.79,0,1.47,0.28,2.04,0.85c0.57,0.56,0.85,1.24,0.85,2.04v5.26
			c0,0.79-0.28,1.47-0.85,2.04s-1.25,0.85-2.04,0.85h-9.34C110.52,62.79,110.52,51.75,110.52,51.75z M113.75,54.63v5.26h5.09
			c0.19,0,0.35-0.07,0.48-0.2c0.13-0.13,0.19-0.29,0.19-0.48v-3.9c0-0.19-0.06-0.35-0.19-0.48c-0.13-0.13-0.29-0.19-0.48-0.19
			L113.75,54.63L113.75,54.63z"/>
		<path class="st1" d="M124.1,51.75h3.23v7.47c0,0.19,0.06,0.35,0.19,0.48c0.13,0.13,0.29,0.2,0.48,0.2h4.41
			c0.19,0,0.35-0.07,0.48-0.2c0.13-0.13,0.19-0.29,0.19-0.48v-7.47h3.23v8.15c0,0.79-0.28,1.47-0.85,2.04s-1.25,0.85-2.04,0.85
			h-6.45c-0.79,0-1.47-0.28-2.04-0.85c-0.57-0.57-0.85-1.25-0.85-2.04v-8.15H124.1z"/>
		<path class="st1" d="M140.48,51.75h6.45c0.79,0,1.47,0.28,2.04,0.85c0.57,0.56,0.85,1.24,0.85,2.04v1.19h-3.23v-0.51
			c0-0.19-0.06-0.35-0.19-0.48c-0.13-0.13-0.29-0.19-0.48-0.19h-4.41c-0.19,0-0.35,0.07-0.48,0.19c-0.13,0.13-0.19,0.29-0.19,0.48
			v3.9c0,0.19,0.06,0.35,0.19,0.48c0.13,0.13,0.29,0.2,0.48,0.2h4.41c0.19,0,0.35-0.07,0.48-0.2c0.13-0.13,0.19-0.29,0.19-0.48
			v-0.51h3.23v1.19c0,0.79-0.28,1.47-0.85,2.04s-1.25,0.85-2.04,0.85h-6.45c-0.79,0-1.47-0.28-2.04-0.85
			c-0.57-0.57-0.85-1.25-0.85-2.04v-5.26c0-0.79,0.28-1.47,0.85-2.04S139.69,51.75,140.48,51.75z"/>
		<path class="st1" d="M151,51.75h12.22v2.75h-4.5v8.28h-3.23V54.5H151V51.75z"/>
		<path class="st1" d="M164.41,51.75h3.23v11.03h-3.23V51.75z"/>
		<path class="st1" d="M171.79,51.75h6.45c0.79,0,1.47,0.28,2.04,0.85c0.57,0.56,0.85,1.24,0.85,2.04v5.26
			c0,0.79-0.28,1.47-0.85,2.04s-1.25,0.85-2.04,0.85h-6.45c-0.79,0-1.47-0.28-2.04-0.85c-0.57-0.57-0.85-1.25-0.85-2.04v-5.26
			c0-0.79,0.28-1.47,0.85-2.04S171,51.75,171.79,51.75z M172.81,54.63c-0.19,0-0.35,0.07-0.48,0.19c-0.13,0.13-0.19,0.29-0.19,0.48
			v3.9c0,0.19,0.06,0.35,0.19,0.48c0.13,0.13,0.29,0.2,0.48,0.2h4.41c0.19,0,0.35-0.07,0.48-0.2c0.13-0.13,0.19-0.29,0.19-0.48v-3.9
			c0-0.19-0.06-0.35-0.19-0.48c-0.13-0.13-0.29-0.19-0.48-0.19C177.22,54.63,172.81,54.63,172.81,54.63z"/>
		<path class="st1" d="M182.4,51.75h3.56l5.43,6.93v-6.93h3.23v11.03h-3.56l-5.43-6.92v6.92h-3.23V51.75z"/>
	</g>
</g>
</svg>
