<?xml version="1.0" encoding="UTF-8"?>
<svg id="Layer_1" xmlns="http://www.w3.org/2000/svg" version="1.1" viewBox="0 0 1366 281.9">
  <!-- Generator: Adobe Illustrator 29.0.1, SVG Export Plug-In . SVG Version: 2.1.0 Build 192)  -->
  <defs>
    <style>
      .st0 {
        fill: #fff;
      }
    </style>
  </defs>
  <polygon class="st0" points="462.8 163.4 538.8 163.4 500.3 95.8 462.8 163.4"/>
  <path class="st0" d="M234.3,86.9h-107v32.5h107c16.6-.2,24.9-5.6,24.9-16.3s-8.3-16-24.9-16.2Z"/>
  <path class="st0" d="M234.3,158.3h-107v32.5h107c16.6-.2,24.9-5.6,24.9-16.3s-8.3-16-24.9-16.2Z"/>
  <polygon class="st0" points="1118 163.4 1194.1 163.4 1155.5 95.8 1118 163.4"/>
  <path class="st0" d="M1239.1,0H0v244.9l36.6,36.6h1300.3l29.1-49L1239.1,0ZM338.2,187.4c0,29.9-23.8,45.4-71.4,46.6H47.5V47.5h219.3c47.6,0,71.4,15.5,71.4,46.6s-21.7,46.6-65.1,46.6c43.4,0,65.1,15.6,65.1,46.7ZM576.9,234l-18.5-33.4h-116.3l-18.5,33.4h-81.5l101.3-186.5h112.2l101.9,186.5h-80.6ZM975.5,234h-296v-44.4l166.3-100.1h-158.3v-42.2h282.1v47.5c0,0-165,97-165,97h170.9v42.2ZM1232.2,234l-18.5-33.4h-116.3l-18.5,33.4h-81.5l101.2-186.5h112.2l102,186.5h-80.6Z"/>
</svg>