<?xml version="1.0" encoding="UTF-8"?> <svg xmlns="http://www.w3.org/2000/svg" width="96" height="32" viewBox="0 0 96 32" fill="none"> <g clip-path="url(#clip0_236_1166)"> <path d="M26.3842 14.8938C26.0596 14.6765 25.6925 14.5692 24.8859 14.5017C25.5352 14.3919 25.8074 14.297 26.0771 14.0797C26.4716 13.7701 26.6589 13.2132 26.6589 12.4142C26.6589 11.3579 26.3492 10.7361 25.6301 10.3691C25.1556 10.1393 24.6013 10.0444 23.545 10.0444H15.387V19.0789H23.9196C24.9609 19.0789 25.5577 18.984 25.9772 18.7668C26.6689 18.3872 27.021 17.6705 27.021 16.5993C27.021 15.7603 26.8187 15.2059 26.3842 14.8938ZM18.0689 12.0496H22.6186C22.9001 12.0261 23.1835 12.0488 23.4576 12.117C23.6061 12.1751 23.7322 12.2791 23.8176 12.4138C23.9029 12.5486 23.943 12.707 23.9321 12.8661C23.9398 13.0005 23.9112 13.1346 23.8493 13.2541C23.7873 13.3736 23.6943 13.4742 23.58 13.5453C23.4052 13.6253 23.2154 13.6527 22.686 13.6527H18.0689V12.0496ZM23.8122 17.0063C23.5384 17.0761 23.2546 17.0989 22.9732 17.0737H18.0689V15.4207H22.9157C23.5275 15.4207 23.6349 15.4356 23.7972 15.4906C23.9469 15.5523 24.0726 15.6608 24.1554 15.7999C24.2382 15.939 24.2737 16.1012 24.2567 16.2622C24.2752 16.417 24.2432 16.5736 24.1653 16.7086C24.0874 16.8437 23.9679 16.9498 23.8247 17.0113" fill="white"></path> <path d="M81.405 10.0619H77.8841L74.9476 13.2831L72.0609 10.0619H68.4501L72.6952 14.5641L68.2204 19.0539H71.9136L74.9476 15.8177L77.9665 19.0539H81.6872L77.17 14.5242L81.405 10.0619Z" fill="white"></path> <path d="M54.3541 16.2098C54.1044 16.4445 54.1044 16.4845 52.6611 16.4845H48.8755C49.0203 17.0688 49.5722 17.9702 50.2164 17.9702H54.1868C55.1382 17.9103 55.5627 17.7205 55.9348 17.336C56.3692 16.8915 56.4816 16.2947 56.4816 14.3395C56.4816 12.6639 56.3692 12.137 55.9248 11.7325C55.3904 11.2481 55.0208 11.1482 52.5862 11.1482C50.9006 11.1482 50.1915 11.2181 49.697 11.4603C49.1227 11.7225 48.8805 12.2794 48.8805 13.3706C48.8805 14.2895 49.1027 14.784 49.6296 15.0661C50.1041 15.3158 50.7533 15.3907 52.0243 15.3907C54.1643 15.3907 54.1893 15.3183 54.5439 14.744C54.5439 15.2184 54.5439 15.2184 54.5239 15.4307C54.5239 15.9751 54.474 16.0849 54.3516 16.2048M54.2717 13.9349C54.0594 14.0273 53.6949 14.0473 52.5237 14.0473C51.2752 14.0473 51.2252 14.0473 51.0255 13.915C50.9394 13.8438 50.873 13.7519 50.8323 13.6479C50.7917 13.5439 50.7783 13.4313 50.7933 13.3207C50.7746 13.1898 50.7955 13.0564 50.8534 12.9376C50.9113 12.8187 51.0034 12.7199 51.1179 12.6539C51.3676 12.5516 51.6922 12.5316 52.6161 12.5316C53.0595 12.5222 53.5031 12.5388 53.9446 12.5815C54.0336 12.5826 54.1213 12.6028 54.2019 12.6408C54.2824 12.6787 54.3539 12.7335 54.4114 12.8015C54.4689 12.8694 54.5112 12.9489 54.5354 13.0346C54.5595 13.1203 54.565 13.2102 54.5514 13.2982C54.5667 13.42 54.5486 13.5436 54.4989 13.6558C54.4491 13.768 54.3697 13.8645 54.2692 13.9349" fill="white"></path> <path d="M39.7236 12.649H44.8601C45.3371 12.649 45.3945 13.1484 45.3945 13.2233C45.4077 13.3453 45.3853 13.4685 45.3299 13.5779C45.2745 13.6874 45.1885 13.7785 45.0824 13.8401C44.7687 13.9348 44.4399 13.9687 44.1135 13.9399H40.9122V15.1885H44.1135C44.4399 15.1598 44.7687 15.1937 45.0824 15.2884C45.1885 15.35 45.2745 15.441 45.3299 15.5505C45.3853 15.66 45.4077 15.7832 45.3945 15.9052C45.3945 15.9776 45.3371 16.4795 44.8601 16.4795H39.7236C39.871 17.0638 40.4203 17.9777 41.0646 17.9777H44.8402C45.3028 17.9941 45.7654 17.9437 46.2136 17.8279C46.9627 17.5957 47.3248 17.0988 47.3248 16.1499C47.3248 15.4831 47.1724 15.0586 46.8603 14.8664C46.6406 14.734 46.4233 14.6716 45.7216 14.5792C46.4233 14.4868 46.6406 14.4244 46.8603 14.292C47.1724 14.0998 47.3248 13.6753 47.3248 13.0085C47.3248 12.0596 46.9577 11.5627 46.2136 11.333C45.7657 11.215 45.303 11.1637 44.8402 11.1807H41.0646C40.4203 11.1807 39.871 12.0821 39.7236 12.6664" fill="white"></path> <path d="M96.2003 7.24272C88.2545 4.74563 76.1437 2.49825 59.146 1.22474C56.8986 1.05494 55.3354 1.03995 52.9907 1C55.0733 2.04378 56.157 2.78791 57.6677 4.26869C59.6158 6.17093 60.9528 8.61066 61.5078 11.2763C62.0629 13.9419 61.8108 16.7125 60.7838 19.2342C59.7569 21.756 58.0016 23.9144 55.7422 25.4338C53.4827 26.9533 50.8217 27.7648 48.0989 27.7648C45.3761 27.7648 42.715 26.9533 40.4556 25.4338C38.1962 23.9144 36.4409 21.756 35.414 19.2342C34.387 16.7125 34.1349 13.9419 34.69 11.2763C35.245 8.61066 36.5819 6.17093 38.5301 4.26869C40.0433 2.78791 41.1595 2.04378 43.1996 1C40.8548 1.03995 39.2967 1.05494 37.0418 1.22474C20.0841 2.49825 7.99068 4.74563 0 7.24272C6.16281 6.52855 17.3997 4.89795 34.2101 4.37107C32.4379 6.91144 31.3958 9.88899 31.1973 12.9801C30.9987 16.0712 31.6512 19.1576 33.0838 21.9038C34.5164 24.6501 36.6744 26.9511 39.3232 28.5569C41.9719 30.1626 45.0102 31.0116 48.1076 31.0116C51.2051 31.0116 54.2433 30.1626 56.8921 28.5569C59.5409 26.9511 61.6988 24.6501 63.1314 21.9038C64.5641 19.1576 65.2166 16.0712 65.018 12.9801C64.8194 9.88899 63.7774 6.91144 62.0052 4.37107C78.8081 4.89795 90.1973 6.52855 96.2153 7.24272" fill="white"></path> </g> <defs> <clipPath id="clip0_236_1166"> <rect width="96" height="32" fill="white"></rect> </clipPath> </defs> </svg> 