<?xml version="1.0" encoding="UTF-8"?>
<svg id="Layer_1" xmlns="http://www.w3.org/2000/svg" version="1.1" viewBox="0 0 219.4 50">
  <!-- Generator: Adobe Illustrator 29.0.1, SVG Export Plug-In . SVG Version: 2.1.0 Build 192)  -->
  <defs>
    <style>
      .st0 {
        fill: #fefefe;
        fill-rule: evenodd;
      }

      .st1 {
        fill: #fff;
      }
    </style>
  </defs>
  <path class="st1" d="M46.8.1h-28.9l-5,8.9h10l-5.6,9.8h10s5.6-9.8,5.6-9.8h8.8L46.8.1Z"/>
  <path class="st1" d="M21.6,5.9H1.7l-1.7,3.1h19.8l1.8-3.1Z"/>
  <path class="st1" d="M0,13.7l14.5,25.2h10.2c0,0-5-8.8-5-8.8h11.2s-5-8.7-5-8.7h-11.2s-4.4-7.7-4.4-7.7H0Z"/>
  <path class="st1" d="M17.7,32.8l9.9,17.3h3.5s-9.9-17.3-9.9-17.3h-3.6Z"/>
  <path class="st1" d="M35.4,47.7l14.5-25.2-5.2-8.9-5,8.7-5.6-9.8-5,8.7,5.6,9.8-4.4,7.7,5.1,9Z"/>
  <path class="st1" d="M43,22.8l9.9-17.3-1.8-3.1-9.9,17.3,1.8,3.1Z"/>
  <path class="st0" d="M113.8,38V12.6h5.6v25.4h-5.6ZM158,38V12.6h5.6v25.4h-5.6ZM195.2,17.1h-9.5v20.9h-5.6v-20.9h-8.9l-3.1-4.5h30.4l7.3,11.4,7.3-11.4h6.3l-10.8,16.6v8.8h-5.6v-8.7l-7.9-12.2h0ZM79.1,17.1v20.9h-5.6v-20.9h-8.7l-3-4.5h36.2c2.8,0,5.5.6,7.6,2.2,2,1.6,2.8,3.7,2.8,6s-.5,3.7-2,5.2c-1.3,1.3-3.1,2.1-5,2.5l8.8,9.5h-6.9l-8.3-9.2h-3.9v9.2h-5.6v-13.5c4,0,8,0,12,0s2.9-.2,3.9-1c.9-.7,1.3-1.7,1.3-2.7s-.4-2-1.3-2.7c-1.1-.8-2.6-1-3.9-1h-18.4ZM133.4,20.5v17.5h-5.6v-20.9h0c0,0-3.1-4.5-3.1-4.5h9.3l13.5,17.6V12.6h5.6v25.4h-6.2l-13.4-17.5h0Z"/>
</svg>