<svg xmlns="http://www.w3.org/2000/svg" height="24" viewBox="0 -960 960 960" width="24"><path d="M693.85-338.46q0 90.92-62.62 154.69Q568.62-120 478.46-120q-90.92 0-153.92-63.77-63-63.77-63-154.69v-349.23q0-63.46 43.65-107.89Q348.85-840 412.31-840q63.46 0 107.11 44.42 43.66 44.43 43.66 107.89v330.77q0 35.23-24.7 60.69-24.69 25.46-59.92 25.46-35.23 0-60.69-25.08-25.46-25.07-25.46-61.07v-332.31h40v332.31q0 19.15 13.11 32.65 13.12 13.5 32.27 13.5 19.16 0 32.27-13.5 13.12-13.5 13.12-32.65v-331.54q-.23-46.62-32.2-79.08Q458.92-800 412.31-800q-46.62 0-78.69 32.85-32.08 32.84-32.08 79.46v349.23q-.23 74.08 51.31 126.27Q404.38-160 478.46-160q73.08 0 124-52.19t51.39-126.27v-350.77h40v350.77Z"/></svg>