<svg xmlns="http://www.w3.org/2000/svg" height="24" viewBox="0 -960 960 960" width="24"><path d="M465.04-714.96q14.27-14.27 34.96-14.27t34.96 14.27q14.27 14.27 14.27 34.96t-14.27 34.96q-14.27 14.27-34.96 14.27t-34.96-14.27q-14.27-14.27-14.27-34.96t14.27-34.96ZM500-48.46 373.85-176.15l51.53-68.47-53.07-72.3L420-388.08v-108.54q-52.46-22.76-86.23-72.26T300-680q0-83.08 58.46-141.54Q416.92-880 500-880q83.08 0 141.54 58.46Q700-763.08 700-680q0 61.62-33.38 111.12-33.39 49.5-86.62 72.26v368.16l-80 80ZM340-680q0 59.08 35.54 100.81 35.54 41.73 84.46 53.42v150.39l-38.69 57.23 53.31 74.3L425.77-179 500-104.77l40-40v-381q48.92-11.69 84.46-53.42Q660-620.92 660-680q0-66-47-113t-113-47q-66 0-113 47t-47 113Z"/></svg>