<svg xmlns="http://www.w3.org/2000/svg" height="24" viewBox="0 -960 960 960" width="24"><path d="M583.65-396.53q42.5-42.68 42.5-103.65 0-60.97-42.68-103.47t-103.65-42.5q-60.97 0-103.47 42.68t-42.5 103.65q0 60.97 42.68 103.47t103.65 42.5q60.97 0 103.47-42.68ZM403.5-423.5Q372-455 372-500t31.5-76.5Q435-608 480-608t76.5 31.5Q588-545 588-500t-31.5 76.5Q525-392 480-392t-76.5-31.5ZM243.23-310.73Q136.31-381.46 83.08-500q53.23-118.54 160.04-189.27T479.89-760q129.96 0 236.88 70.73Q823.69-618.54 876.92-500q-53.23 118.54-160.04 189.27T480.11-240q-129.96 0-236.88-70.73ZM480-500Zm207.5 160.5Q782-399 832-500q-50-101-144.5-160.5T480-720q-113 0-207.5 59.5T128-500q50 101 144.5 160.5T480-280q113 0 207.5-59.5Z"/></svg>