<?xml version="1.0" encoding="UTF-8"?>
<svg id="Layer_1" xmlns="http://www.w3.org/2000/svg" xmlns:xlink="http://www.w3.org/1999/xlink" version="1.1" viewBox="0 0 220 220">
  <!-- Generator: Adobe Illustrator 29.0.1, SVG Export Plug-In . SVG Version: 2.1.0 Build 192)  -->
  <defs>
    <style>
      .st0 {
        fill: none;
      }

      .st1 {
        fill: #c70001;
      }

      .st2 {
        fill-rule: evenodd;
      }

      .st2, .st3 {
        fill: #f9d50b;
      }

      .st4 {
        clip-path: url(#clippath);
      }
    </style>
    <clipPath id="clippath">
      <rect class="st0" x="0" y="0" width="220" height="220" transform="translate(-31.5 174.7) rotate(-69.6)"/>
    </clipPath>
  </defs>
  <g>
    <path d="M132.3,50.5c-26.1-9.7-54.5-1.4-71.3,18.7l113,42.1c.4-26.2-15.6-51.1-41.7-60.8Z"/>
    <path class="st3" d="M87.8,169.8c26.1,9.7,54.5,1.4,71.3-18.7l-113-42.1c-.4,26.2,15.6,51.1,41.7,60.8Z"/>
    <path class="st1" d="M61,69.2c-4.5,5.4-8.2,11.6-10.8,18.6s-3.9,14.1-4,21.1l113,42.1c4.5-5.4,8.2-11.6,10.8-18.6,2.6-7,3.9-14.1,4-21.2l-113-42.1Z"/>
  </g>
  <g class="st4">
    <g>
      <path class="st3" d="M165.2,163.2c1.3-1.4,2.8-2.1,4.4-2.1,1.6,0,3.1.8,4.7,2.3l5,4.9c1.6,1.6,2.4,3.2,2.4,4.8,0,1.6-.8,3.2-2.3,4.8-1.6,1.7-3.3,2.5-4.9,2.6-1.6,0-3.1-.7-4.4-2.3-.2-.2-.2-.3,0-.5l2-2.1c.1-.1.3,0,.5,0,.8.8,1.6,1.2,2.4,1.2.8,0,1.5-.4,2.3-1.1.8-.8,1.2-1.7,1.1-2.5,0-.8-.6-1.7-1.5-2.6l-4.9-4.7c-.9-.9-1.8-1.4-2.6-1.4-.8,0-1.6.4-2.4,1.2-.8.8-1.2,1.6-1.1,2.5,0,.9.5,1.7,1.3,2.5l.9.9,2.2-2.2c.2-.2.3-.2.5,0l1.4,1.4c.2.2.2.3,0,.5l-4.3,4.4c-.1.1-.3.1-.5,0l-3.9-3.8c-.5-.5-1.1-1-1.6-1.5-.5-.4-1-.8-1.6-1.2-.2-.1-.2-.3,0-.5l1.5-1.6c.1-.1.3-.2.4,0,.2.2.5.3.7.6.3.2.6.5.9.8h0c-.3-1-.4-1.8-.2-2.7.2-.9.7-1.7,1.5-2.5Z"/>
      <path class="st3" d="M157.2,171c.2-.1.3,0,.5,0l10.9,15.8c.1.2,0,.3,0,.5l-8,5.6c-.2.1-.3,0-.5,0l-1.3-1.9c-.1-.2,0-.3,0-.5l5.5-3.8-3-4.4-5,3.5c-.2.1-.3,0-.4-.1l-1.3-1.8c-.1-.2-.1-.4,0-.5l5-3.5-3.2-4.6-5.5,3.8c-.2.1-.3,0-.5,0l-1.3-1.9c-.1-.2,0-.3,0-.5l8-5.6Z"/>
      <path class="st3" d="M146.6,178.1c.2,0,.3,0,.4.2l8,17.5c0,.2,0,.3-.2.4l-4.8,2.2c-2,.9-3.7,1.2-5.1.7-1.4-.4-2.5-1.5-3.3-3.2-.6-1.3-.8-2.5-.7-3.6.1-1.1.6-2,1.4-2.7h0c-.4-.4-.8-.7-1.2-1-.4-.3-.8-.7-1.2-1l-4.7-3.8c0,0-.1-.2-.2-.3,0,0,0-.1.2-.2l2.9-1.3c.2,0,.3,0,.5,0l6.6,5.5,2-.9-3.2-6.9c0-.2,0-.3.1-.4l2.6-1.2ZM148.2,189.1l-1.9.9c-1,.5-1.6,1-1.9,1.7-.3.7-.2,1.5.3,2.6.4.9,1,1.5,1.6,1.7.7.2,1.5,0,2.4-.3l2-.9-2.5-5.6Z"/>
      <path class="st3" d="M133.4,184c.2,0,.3,0,.4.3l3.6,18.9c0,.2,0,.3-.3.4l-3.4.7c-.2,0-.3,0-.4-.2l-6.4-10.2-1.8,11.9c0,.2-.1.3-.3.3l-3.4.7c-.2,0-.3,0-.4-.3l-4.2-18.7c0-.2,0-.3.2-.4l2.7-.6c.2,0,.3,0,.4.3l2.1,9.1c.2.9.4,1.9.5,2.8.1.9.2,1.8.3,2.6h.1c0-.8.2-1.6.3-2.3.1-.8.2-1.5.4-2.3l1.5-8.8c0-.2.1-.2.3-.3h.1c.2,0,.3,0,.4,0l5,7.7c.4.6.8,1.2,1.2,1.9.4.6.7,1.3,1.1,2h.1c-.2-.8-.5-1.7-.7-2.6-.2-.9-.4-1.8-.6-2.7l-1.8-9.2c0-.2,0-.3.2-.4l2.7-.6Z"/>
      <path class="st3" d="M116,187.4c.2,0,.3.1.2.4l-5.5,19.1c0,.2-.2.3-.4.3h-3.7c-.1,0-.3-.2-.3-.4l-5.1-19.3c0,0,0-.2,0-.3,0,0,0-.1.2-.1h3.1c.2,0,.3.1.3.3l2.8,12.2c.2.7.3,1.5.5,2.1.1.7.3,1.4.4,2.2h0c.1-.7.3-1.4.4-2.1.2-.7.3-1.4.5-2.1l3.1-12.2c0-.2.2-.3.4-.3h3ZM112.1,191.6l-.7,2.9h-5.7c0,0-.6-3-.6-3h7Z"/>
      <path class="st3" d="M99.2,186.9c.2,0,.3.2.2.4l-4.1,18.7c0,.2-.2.3-.4.3l-3.6-.8c-.2,0-.3-.2-.3-.3l-1.3-7.7c-.2-1.2-.4-2.3-.5-3.3-.1-1-.3-2-.4-2.9-.1-.9-.2-1.7-.3-2.4h0c-.1.7-.2,1.5-.4,2.4-.2.9-.3,1.9-.5,2.9-.2,1-.4,2-.6,2.9l-1.5,6.8c0,.2-.2.3-.4.3l-2.6-.6c-.2,0-.3-.2-.2-.4l4.2-18.7c0-.2.2-.3.4-.3l3.5.8c.2,0,.3.2.3.4l1.2,7.7c.2,1.1.4,2.2.5,3.1.1,1,.3,1.9.4,2.8.1.9.2,1.8.3,2.6h0c.1-.8.3-1.7.4-2.6.2-.9.3-1.9.5-2.8.2-.9.3-1.8.5-2.6l1.5-6.8c0-.2.2-.3.4-.3l2.6.6Z"/>
      <path class="st3" d="M69.2,169.3c1,.6,1.5,1.6,1.5,2.9,0,1.2-.7,2.8-1.8,4.8-.1.2-.2.2-.4,0l-1.9-1.3c-.1,0-.2-.2,0-.4.7-1.1,1.1-1.9,1.2-2.6.1-.6,0-1.1-.5-1.4-.1,0-.3-.1-.4-.2-.1,0-.3-.1-.4-.2-.2,0-.3-.2-.1-.4l1-1.6c.1-.2.3-.3.4-.2.2,0,.5,0,.7.2.2,0,.6.2.9.4ZM69.3,175.5c1.9,1.2,3,2.6,3.4,4.1.3,1.6,0,3.3-1.2,5.2l-3.6,5.9c-1.1,1.9-2.5,3-4.1,3.4-1.6.4-3.4,0-5.3-1.2-1.9-1.2-3.1-2.6-3.4-4.2-.4-1.6,0-3.3,1.2-5.2l3.6-5.9c1.1-1.9,2.5-3,4.1-3.4,1.6-.4,3.3,0,5.2,1.2ZM67.7,178.1c-1-.6-1.8-.8-2.7-.5-.8.2-1.6.9-2.3,2.1l-3.5,5.6c-.7,1.2-1,2.1-.8,3,.2.8.7,1.5,1.7,2.1.9.6,1.8.8,2.6.5.8-.2,1.6-.9,2.3-2.1l3.5-5.6c.7-1.1,1-2.1.8-3-.2-.8-.7-1.5-1.7-2.1Z"/>
      <path class="st3" d="M57,166.1c1.5,1.4,2.3,2.9,2.4,4.5s-.7,3.2-2.3,4.8l-9,9.5c-.2.2-.3.2-.5,0l-2-1.9c-.2-.2-.2-.3,0-.5l9-9.5c.9-.9,1.3-1.8,1.4-2.5,0-.8-.4-1.5-1.1-2.2-.8-.7-1.5-1-2.3-1-.8,0-1.6.6-2.5,1.5l-9,9.5c-.2.2-.3.2-.5,0l-2-1.9c-.2-.2-.2-.3,0-.5l9-9.6c1.6-1.7,3.1-2.5,4.7-2.5,1.5,0,3.1.7,4.7,2.2Z"/>
      <path class="st3" d="M51.2,161.1c.1.2,0,.3-.2.4l-18.7,6.8c-.2,0-.4,0-.5-.2l-2.2-3c0-.1,0-.3,0-.4l12.6-15.5c0,0,.1-.1.2-.1,0,0,.1,0,.2,0l1.8,2.5c.1.2,0,.3,0,.4l-8.2,9.5c-.5.6-1,1.1-1.4,1.7-.5.5-1,1.1-1.5,1.6h0c.7-.3,1.3-.6,2-.8.6-.3,1.3-.5,2-.8l11.7-4.7c.2,0,.3,0,.4.2l1.7,2.4ZM45.6,160.5l-2.7,1.2-3.3-4.7,2-2.2,4,5.7Z"/>
      <path class="st3" d="M41.9,147c0,.2,0,.3-.2.4l-17.3,8.2c-.2.1-.4,0-.5-.1l-1.2-2.5c0-.2,0-.4.2-.5l14.8-7-2.7-5.7c0-.2,0-.3.2-.4l2.2-1c.2,0,.3,0,.4.2l4,8.5Z"/>
      <path class="st3" d="M37,135.9c0,.2,0,.4-.2.4l-18.2,6c-.2,0-.4,0-.5-.2l-.9-2.6c0-.2,0-.4.2-.4l18.2-6c.2,0,.4,0,.5.2l.9,2.6Z"/>
      <path class="st3" d="M34.3,125.9c0,.2,0,.4-.3.4l-16.1,3.1.8,4.1c0,.2,0,.3-.3.4l-2.4.4c-.2,0-.3,0-.4-.3l-2.2-11.6c0-.2,0-.3.3-.4l2.4-.4c.2,0,.4,0,.4.3l.8,4.1,16.1-3.1c.2,0,.4,0,.4.3l.5,2.7Z"/>
      <path class="st3" d="M32.7,112.7c0,.2-.1.4-.3.4h-6.6c0,0-12.5,5.7-12.5,5.7-.2.1-.4,0-.4-.2v-3.1c0-.2,0-.3.2-.3l5.6-2.3c.6-.2,1.2-.4,1.9-.6.6-.2,1.3-.5,1.9-.7h0c-.7-.3-1.3-.5-2-.7-.6-.2-1.3-.4-1.9-.6l-5.6-2.1c-.2,0-.3-.2-.3-.3v-3.1c0-.1,0-.2,0-.2,0,0,.1,0,.3,0l12.7,5.3h6.6c.2,0,.3,0,.3.2v2.8Z"/>
      <path class="st3" d="M28,89.7c-.2.7-.5,1.2-.9,1.5-.5.3-1,.3-1.7.2h-.5c-.7-.3-1.1-.6-1.4-1.1-.3-.5-.3-1.1-.1-1.7.4-1.5,1.3-2,2.6-1.7h.5c.6.3,1.1.6,1.4,1.1.3.4.3,1.1.1,1.8Z"/>
      <path class="st3" d="M40.1,77c-.1.2-.3.2-.5.1l-16.6-9.7c-.2-.1-.2-.3-.1-.5l2.5-4.3c1.4-2.4,3-3.7,4.9-4.1,1.9-.4,4.1.1,6.5,1.5l1.9,1.1c2.6,1.5,4.3,3.3,4.9,5.1.6,1.9.3,4-1.1,6.4l-2.5,4.3ZM38.9,72.8l.9-1.5c.8-1.4,1-2.7.6-3.8-.5-1.2-1.6-2.3-3.4-3.3l-1.9-1.1c-1.6-1-3-1.3-4.2-1.1-1.2.2-2.2,1-3,2.4l-.9,1.5,11.9,6.9Z"/>
      <path class="st3" d="M48.6,63.3c-.1.2-.3.2-.5,0l-14.5-12.6c-.2-.1-.2-.3,0-.5l6.4-7.4c.1-.2.3-.2.5,0l1.8,1.6c.2.1.2.3,0,.5l-4.4,5,4,3.5,4-4.6c.1-.1.3-.1.4,0l1.7,1.5c.2.2.2.3,0,.5l-4,4.6,4.2,3.7,4.4-5c.1-.2.3-.2.5,0l1.8,1.6c.2.1.2.3,0,.5l-6.4,7.4Z"/>
      <path class="st3" d="M61.9,50.4c-1.7,1.3-3.3,1.9-4.8,1.7-1.5-.2-3-1.2-4.5-3l-8.1-10.3c-.2-.2-.1-.4,0-.5l2.2-1.7c.2-.1.3-.1.5,0l8.1,10.3c.8,1,1.6,1.6,2.3,1.7.8.1,1.5-.1,2.3-.8.8-.7,1.3-1.4,1.3-2.1,0-.8-.3-1.7-1.1-2.7l-8.1-10.3c-.2-.2-.1-.4,0-.5l2.2-1.7c.2-.1.3-.1.5,0l8.1,10.3c1.4,1.8,2,3.5,1.8,5-.2,1.5-1.1,3-2.8,4.3Z"/>
      <path class="st3" d="M72.5,43c-.2.1-.4,0-.5-.2l-7.6-14.5-3.7,2c-.2.1-.4,0-.5-.2l-1.1-2.1c-.1-.2,0-.3.1-.4l10.5-5.5c.2-.1.3,0,.4.1l1.1,2.1c.1.2,0,.4-.1.5l-3.7,2,7.6,14.5c.1.2,0,.4-.1.5l-2.4,1.3Z"/>
      <path class="st3" d="M86.1,37.5c-2.1.7-3.8.6-5.1,0-1.3-.7-2.1-2-2.5-3.8,0-.2,0-.4.3-.4l2.6-.8c.2,0,.4,0,.4.3.2,1,.6,1.7,1.2,2,.6.3,1.3.3,2.2,0,.9-.3,1.5-.7,1.8-1.2.3-.5.4-1.1.1-1.8-.1-.5-.3-.8-.6-1.1-.2-.3-.5-.5-.9-.7-.4-.2-.8-.3-1.4-.5l-4.1-.8c-1.2-.3-2.2-.7-2.9-1.3-.7-.6-1.3-1.6-1.6-2.7-.5-1.5-.4-2.8.3-4,.7-1.1,2-2,3.8-2.5,2-.6,3.7-.6,5,0,1.3.7,2.2,1.9,2.6,3.7,0,.3,0,.5-.2.5l-2.7.8c-.2,0-.3,0-.4-.3-.2-.8-.6-1.4-1.2-1.8-.5-.4-1.3-.4-2.3-.1-.7.2-1.3.6-1.6,1-.3.4-.4,1-.1,1.7.2.6.5,1.1.9,1.4.4.3,1,.5,1.8.7l4.1.9c.9.2,1.6.4,2.2.8.6.3,1.1.8,1.5,1.3.4.5.7,1.2,1,2,.5,1.7.4,3.2-.3,4.4-.7,1.1-2.1,2-4,2.6Z"/>
      <path class="st3" d="M100.4,34.3c-2.2.3-3.9-.1-5.2-1.1-1.3-1-2.1-2.6-2.3-4.9l-.8-6.8c-.3-2.2.1-4,1.1-5.2,1-1.3,2.6-2.1,4.8-2.3,1.5-.2,2.8,0,3.9.3,1.1.4,2,1.1,2.7,2,.6,1,.9,2.2.9,3.8,0,.2-.1.4-.3.4l-2.7.3c-.2,0-.3,0-.3-.3,0-1.3-.4-2.2-1-2.8-.6-.6-1.5-.9-2.7-.7-1.1.1-1.9.5-2.4,1.2-.5.7-.7,1.7-.5,3l.8,6.5c.2,1.3.6,2.3,1.2,2.9.6.5,1.5.8,2.6.6,1.2-.1,2-.6,2.5-1.3.5-.7.6-1.8.3-3.1,0-.2,0-.4.2-.4l2.7-.3c.2,0,.3,0,.4.3.4,2.2.1,3.9-.9,5.3-1,1.4-2.6,2.2-5,2.5Z"/>
      <path class="st3" d="M109.9,33.2c-.2,0-.3-.2-.3-.4l1.7-19.1c0-.2.1-.4.4-.3l2.8.3c.2,0,.3.2.3.4l-.7,7.8,6.4.6.7-7.8c0-.2.1-.4.4-.3l2.7.2c.2,0,.3.2.3.4l-1.7,19.1c0,.2-.1.4-.4.3l-2.7-.2c-.2,0-.3-.2-.3-.4l.8-8.2-6.4-.6-.8,8.2c0,.2-.1.4-.4.3l-2.8-.3Z"/>
      <path class="st3" d="M126.3,35.1c-.2,0-.3-.2-.2-.4l5.4-18.5c0-.2.2-.3.4-.2l9.4,2.7c.2,0,.3.2.2.4l-.7,2.3c0,.2-.2.3-.4.2l-6.4-1.9-1.5,5.1,5.8,1.7c.2,0,.3.2.2.4l-.6,2.1c0,.2-.2.3-.4.3l-5.8-1.7-1.6,5.4,6.4,1.9c.2,0,.3.2.2.4l-.7,2.3c0,.2-.2.3-.4.2l-9.4-2.7Z"/>
      <path class="st3" d="M152.2,53.1c-1-.7-1.5-1.7-1.4-2.9,0-1.2.8-2.8,2-4.7.1-.2.3-.2.4,0l1.9,1.3c.1,0,.1.2,0,.5-.7,1.1-1.1,1.9-1.3,2.5-.2.6,0,1.1.5,1.4.1,0,.3.2.4.2.1,0,.3.1.4.2.2,0,.3.2.1.4l-1.1,1.6c-.1.2-.3.3-.4.2-.2,0-.5,0-.7-.2-.2,0-.5-.2-.9-.5ZM152.5,46.9c-1.9-1.3-2.9-2.7-3.3-4.3-.3-1.6.2-3.3,1.4-5.1l3.9-5.7c1.2-1.8,2.6-2.9,4.2-3.2,1.6-.3,3.4.1,5.2,1.4,1.9,1.3,3,2.7,3.2,4.3.3,1.6-.2,3.3-1.4,5.1l-3.9,5.7c-1.2,1.8-2.6,2.9-4.2,3.2-1.6.3-3.3-.1-5.2-1.4ZM154.2,44.4c.9.6,1.8.9,2.6.7.8-.2,1.6-.9,2.4-2l3.7-5.5c.8-1.1,1.1-2.1.9-2.9-.1-.8-.7-1.6-1.6-2.2-.9-.6-1.8-.8-2.6-.6-.8.2-1.6.9-2.4,2l-3.7,5.5c-.7,1.1-1.1,2.1-.9,2.9.1.8.6,1.5,1.6,2.2Z"/>
      <path class="st3" d="M164.3,56.7c-1.5-1.5-2.2-3-2.2-4.6,0-1.5.8-3.1,2.5-4.7l9.4-9.2c.2-.2.3-.2.5,0l1.9,2c.2.2.1.3,0,.5l-9.4,9.2c-.9.9-1.4,1.7-1.5,2.5,0,.8.3,1.5,1,2.3.7.8,1.5,1.1,2.2,1.1.8,0,1.6-.5,2.5-1.4l9.4-9.2c.2-.2.3-.2.5,0l1.9,2c.2.2.1.3,0,.5l-9.4,9.2c-1.6,1.6-3.2,2.4-4.8,2.3-1.5,0-3.1-.8-4.6-2.3Z"/>
      <path class="st3" d="M169.9,62c-.1-.2,0-.3.2-.4l19-6c.2,0,.4,0,.5.2l2,3.1c0,.1,0,.3,0,.4l-13.2,14.9c0,0-.1.1-.2.1,0,0-.1,0-.2,0l-1.7-2.6c-.1-.2,0-.3,0-.4l8.6-9.1c.5-.5,1-1.1,1.5-1.6.5-.5,1-1,1.6-1.6h0c-.7.2-1.4.5-2,.8-.7.2-1.4.5-2.1.7l-11.9,4.2c-.2,0-.3,0-.4-.2l-1.6-2.5ZM175.5,62.8l2.8-1.1,3.1,4.8-2.1,2.1-3.8-5.9Z"/>
      <path class="st3" d="M178.7,76.3c0-.2,0-.3.2-.4l17.7-7.5c.2,0,.4,0,.5.2l1.1,2.5c0,.2,0,.4-.2.5l-15.1,6.4,2.5,5.8c0,.2,0,.3-.2.4l-2.2,1c-.2,0-.3,0-.4-.2l-3.7-8.7Z"/>
      <path class="st3" d="M183,87.5c0-.2,0-.4.3-.4l18.4-5.3c.2,0,.4,0,.4.2l.8,2.7c0,.2,0,.4-.3.4l-18.4,5.3c-.2,0-.4,0-.4-.2l-.8-2.7Z"/>
      <path class="st3" d="M185.5,97.6c0-.2,0-.4.3-.4l16.2-2.4-.6-4.2c0-.2,0-.3.3-.4l2.4-.4c.2,0,.3,0,.4.3l1.7,11.7c0,.2,0,.3-.3.4l-2.4.4c-.2,0-.4,0-.4-.3l-.6-4.2-16.2,2.4c-.2,0-.4,0-.4-.3l-.4-2.7Z"/>
      <path class="st3" d="M186.7,105.1c0-.2.1-.3.4-.2l19,5.9c.2,0,.3.2.3.4v3.7c-.1.1-.2.3-.4.3l-19.4,4.7c0,0-.2,0-.3,0,0,0-.1,0-.1-.2v-3.1c.1-.2.2-.3.4-.3l12.3-2.6c.7-.1,1.5-.3,2.2-.4.7-.1,1.4-.2,2.2-.4h0c-.7-.2-1.4-.4-2.1-.5-.7-.2-1.4-.4-2.1-.6l-12.1-3.3c-.2,0-.3-.2-.2-.4v-3ZM190.9,109l2.9.7-.2,5.7-2.9.6.2-7ZM209,110.4c0-.6.2-1.1.6-1.4.4-.3.8-.5,1.4-.5h.4c.6,0,1,.2,1.3.6.3.4.5.8.5,1.5,0,.6-.2,1.1-.6,1.4-.4.3-.8.5-1.4.5h-.4c-.6,0-1-.2-1.3-.6-.3-.3-.5-.8-.5-1.5ZM208.9,115.8c0-.6.2-1.1.6-1.4.4-.3.8-.5,1.4-.5h.4c.6,0,1,.2,1.3.6.3.4.5.8.5,1.5,0,.6-.2,1.1-.6,1.4-.4.3-.8.5-1.4.5h-.4c-.6,0-1-.2-1.3-.6-.3-.3-.5-.8-.5-1.5Z"/>
      <path class="st3" d="M185.1,125.4c0-.2.2-.3.4-.3l16,3.5.9-4.1c0-.2.2-.3.4-.2l2.3.5c.2,0,.3.2.3.4l-2.5,11.6c0,.2-.2.3-.4.3l-2.3-.5c-.2,0-.3-.2-.3-.4l.9-4.1-16-3.5c-.2,0-.3-.2-.3-.4l.6-2.7Z"/>
      <path class="st3" d="M184.9,148.1c.3-.6.7-1,1.2-1.2.5-.2,1.1-.1,1.7.2l.4.2c.6.3,1,.7,1.1,1.2.2.5,0,1.1-.3,1.7-.7,1.4-1.7,1.7-2.9,1.1l-.4-.2c-.6-.3-1-.7-1.2-1.2-.2-.5,0-1.1.3-1.8Z"/>
      <path class="st2" d="M132,51c-32.6-12.2-68.9,4.4-81,37-12.2,32.6,4.4,68.9,37,81,32.6,12.2,68.9-4.4,81-37,12.2-32.6-4.4-68.9-37-81ZM132.7,49.1c-33.6-12.5-71.1,4.6-83.6,38.2-12.5,33.6,4.6,71.1,38.2,83.6,33.6,12.5,71.1-4.6,83.6-38.2,12.5-33.6-4.6-71.1-38.2-83.6Z"/>
      <path class="st2" d="M147.7,8.8C91.8-12,29.6,16.4,8.8,72.3s7.6,118.1,63.5,138.9c55.9,20.8,118.1-7.6,138.9-63.5,20.8-55.9-7.6-118.1-63.5-138.9ZM148.4,6.9C91.5-14.3,28.1,14.7,6.9,71.6c-21.2,56.9,7.7,120.3,64.7,141.5,56.9,21.2,120.3-7.7,141.5-64.7,21.2-56.9-7.7-120.3-64.7-141.5Z"/>
    </g>
  </g>
</svg>