<?xml version="1.0" encoding="UTF-8"?>
<svg id="_x2014_ÎÓÈ_x5F_1" xmlns="http://www.w3.org/2000/svg" xmlns:xlink="http://www.w3.org/1999/xlink" version="1.1" viewBox="0 0 393 393">
  <!-- Generator: Adobe Illustrator 29.0.1, SVG Export Plug-In . SVG Version: 2.1.0 Build 192)  -->
  <defs>
    <style>
      .st0 {
        fill: none;
      }

      .st1 {
        clip-path: url(#clippath);
      }
    </style>
    <clipPath id="clippath">
      <path class="st0" d="M196.5,196.5h196.5c0-4.3-.1-8.5-.4-12.7-.3-4.2-.7-8.3-1.2-12.3-.5-4.1-1.2-8.1-1.9-12-.8-3.9-1.6-7.8-2.6-11.7-1-3.8-2.1-7.6-3.2-11.3-1.2-3.7-2.5-7.4-3.9-10.9-1.4-3.6-2.9-7.1-4.4-10.5-1.6-3.4-3.2-6.8-5-10.1-1.8-3.3-3.6-6.6-5.5-9.7-1.9-3.2-3.9-6.3-6-9.3-2.1-3-4.2-6-6.4-8.9-2.2-2.9-4.5-5.7-6.9-8.4-2.4-2.7-4.8-5.4-7.2-8-2.5-2.6-5-5.1-7.6-7.5-2.6-2.4-5.2-4.8-8-7.1-2.7-2.3-5.5-4.5-8.3-6.6-2.8-2.1-5.7-4.1-8.6-6.1-2.9-1.9-5.8-3.8-8.8-5.6-3-1.8-6-3.5-9.1-5.1-3.1-1.6-6.2-3.2-9.3-4.6-3.1-1.4-6.3-2.8-9.5-4.1-3.2-1.3-6.4-2.5-9.7-3.6-3.3-1.1-6.6-2.1-9.9-3.1-3.3-.9-6.7-1.8-10-2.5-3.4-.8-6.8-1.4-10.2-2-3.4-.6-6.8-1.1-10.3-1.5-3.4-.4-6.9-.7-10.4-.9-3.5-.2-7-.3-10.5-.4-3.5,0-7,0-10.5.2-3.5.2-6.9.4-10.3.7-3.4.3-6.8.7-10.1,1.2-3.3.5-6.6,1.1-9.9,1.7-3.3.7-6.5,1.4-9.6,2.2s-6.3,1.7-9.4,2.6c-3.1,1-6.2,2-9.2,3.1s-6,2.3-8.9,3.5c-2.9,1.2-5.8,2.5-8.7,3.9-2.8,1.4-5.6,2.8-8.4,4.3-2.8,1.5-5.5,3-8.1,4.6-2.7,1.6-5.3,3.3-7.9,5-2.6,1.7-5.1,3.5-7.6,5.3-2.5,1.8-4.9,3.7-7.3,5.7-2.4,1.9-4.7,3.9-7,6-2.3,2-4.5,4.1-6.7,6.3-2.2,2.1-4.3,4.3-6.4,6.5s-4.1,4.5-6,6.8c-2,2.3-3.9,4.7-5.7,7.1-1.8,2.4-3.6,4.8-5.4,7.3-1.7,2.5-3.4,5-5,7.5-1.6,2.6-3.2,5.1-4.7,7.8-1.5,2.6-2.9,5.3-4.3,8-1.4,2.7-2.7,5.4-3.9,8.2s-2.4,5.5-3.6,8.4c-1.1,2.8-2.2,5.7-3.2,8.6-1,2.9-1.9,5.8-2.8,8.7-.9,2.9-1.7,5.9-2.4,8.9-.7,3-1.4,6-2,9s-1.1,6.1-1.5,9.2-.8,6.2-1.1,9.3c-.3,3.1-.5,6.3-.7,9.4C0,190.1,0,193.3,0,196.5s0,6.4.2,9.6c.2,3.2.4,6.3.7,9.4.3,3.1.7,6.2,1.1,9.3.4,3.1,1,6.1,1.5,9.2s1.2,6,2,9c.7,3,1.5,5.9,2.4,8.9.9,2.9,1.8,5.8,2.8,8.7,1,2.9,2.1,5.7,3.2,8.5,1.1,2.8,2.3,5.6,3.6,8.4,1.3,2.8,2.6,5.5,3.9,8.2,1.4,2.7,2.8,5.4,4.3,8,1.5,2.6,3.1,5.2,4.7,7.8,1.6,2.6,3.3,5.1,5,7.5,1.7,2.5,3.5,4.9,5.4,7.3,1.8,2.4,3.7,4.8,5.7,7.1,2,2.3,4,4.6,6,6.8,2.1,2.2,4.2,4.4,6.4,6.5,2.2,2.1,4.4,4.2,6.7,6.3,2.3,2,4.6,4,7,6,2.4,1.9,4.8,3.8,7.3,5.7,2.5,1.8,5,3.6,7.6,5.3,2.6,1.7,5.2,3.4,7.9,5,2.7,1.6,5.4,3.2,8.1,4.6,2.8,1.5,5.6,2.9,8.4,4.3,2.8,1.4,5.7,2.7,8.7,3.9,2.9,1.2,5.9,2.4,8.9,3.5,3,1.1,6.1,2.1,9.2,3.1,3.1,1,6.2,1.8,9.4,2.6,3.2.8,6.4,1.5,9.6,2.2,3.3.7,6.5,1.2,9.9,1.7,3.3.5,6.7.9,10.1,1.2,3.4.3,6.8.6,10.3.7,3.5.1,7,.2,10.5.2,3.5,0,7-.2,10.5-.4,3.5-.2,6.9-.5,10.4-.9s6.9-.9,10.3-1.5c3.4-.6,6.8-1.2,10.2-2,3.4-.8,6.7-1.6,10-2.5,3.3-.9,6.6-1.9,9.9-3.1,3.3-1.1,6.5-2.3,9.7-3.6,3.2-1.3,6.4-2.6,9.5-4.1,3.1-1.4,6.2-3,9.3-4.6,3.1-1.6,6.1-3.3,9.1-5.1,3-1.8,5.9-3.7,8.8-5.6,2.9-1.9,5.8-4,8.6-6.1,2.8-2.1,5.6-4.3,8.3-6.6,2.7-2.3,5.4-4.6,8-7.1,2.6-2.4,5.1-4.9,7.6-7.5,2.5-2.6,4.9-5.2,7.2-8s4.6-5.6,6.9-8.4c2.2-2.9,4.4-5.8,6.4-8.9,2.1-3,4.1-6.1,6-9.3,1.9-3.2,3.7-6.4,5.5-9.7,1.7-3.3,3.4-6.7,5-10.1,1.6-3.4,3.1-7,4.4-10.5,1.4-3.6,2.7-7.2,3.9-10.9,1.2-3.7,2.3-7.5,3.2-11.3,1-3.8,1.8-7.7,2.6-11.7.8-3.9,1.4-8,1.9-12,.5-4.1.9-8.2,1.2-12.3.3-4.2.4-8.4.4-12.7h-129.6c-1.5,0-3.1,0-4.6,0h-4.7c-1.6,0-3.2,0-4.7,0h-4.8c-1.6,0-3.3,0-4.9,0s-3.3,0-5,0h-5.1c-1.7,0-3.4,0-5.2,0s-3.5,0-5.3,0h-22.5Z"/>
    </clipPath>
  </defs>
  <g class="st1">
    <image width="1639" height="1639" transform="translate(-.2 -.1) scale(.2)" xlink:href="palette-1.png"/>
  </g>
  <rect class="st0" x="0" y="0" width="393" height="393"/>
</svg>