<svg xmlns="http://www.w3.org/2000/svg" version="1.1" xmlns:xlink="http://www.w3.org/1999/xlink" xmlns:svgjs="http://svgjs.dev/svgjs" width="16" height="16"><svg id="SvgjsSvg1005" xmlns="http://www.w3.org/2000/svg" version="1.1" viewBox="0 0 16 16">
  <!-- Generator: Adobe Illustrator 29.0.1, SVG Export Plug-In . SVG Version: 2.1.0 Build 192)  -->
  <defs>
    <style>
      .st0 {
        fill: #c62026;
        fill-rule: evenodd;
      }
    </style>
  </defs>
  <path class="st0" d="M8.9,16.1c0-.5.4-1.7.5-2.1.1-.4.4-1.2.6-1.4,0,1-.1,1.6-.3,2.2-.3.7-.6,1.3-.7,1.4h0,0ZM10.5,9.4c0-.4-.3-1-.3-1.3.4-.1,1.1-.5,1.2-.5-.1.3-.7,1.4-.9,1.8h0ZM-.2,8.9c-.7,0-1.8,0-1.8-.8,0-.6.6-1.2.8-1.4,1.3-1,3.1-1.1,4.2-1s3.6,1,3.6,1c-.3.2-3.5,1.4-4.6,1.8-.5.2-1.5.4-2.2.4h0ZM2.5,4.3c-1.9-.1-3.3.1-5,1.5-1.4,1.2-1.9,4,.3,4.8,2.2.9,4.2,0,5.9-.4.3,0,2.9-1,2.9-1,0,0-1.5,3.7-1.5,3.8.1,0,.2.2.4.3.1-.1,2.3-4.4,2.3-4.4.4-.1,1.1-.4,1.4-.4l.4,1.8c0,.2.1.4.1.6-.5.8-.9,1.5-1.3,2.7-.3.8-.6,2.2-.6,3.1,0,.6.6,1.1,1,.9.5-.4,1.2-1.4,1.5-2.3.4-1.3.5-2.5.5-4,0-.2,0-.2.1-.5l1-1.9c.2-.5.4-.8.6-1.3.3-.5.3-.4,1-.7l2.3-1c.3-.1.7-.3.9-.5.4-.3.3-1,.2-1.3s-.3-.5-.6-.6c-.6-.3-1.1-.1-1.6,0l.7-1.8c.3-.6.5-1.2.8-1.8-.1,0-.4-.2-.5-.3-.1.2-.4.7-.5,1l-1.1,2.1c-.1.2-.2.3-.3.5-.4.8-.3.5-1.2.9,0,0-2.5,1-2.7,1.1-.2-.8.5-2.1.6-2.6-.3,0-.5,0-.8,0,0,.2-1.6,2.9-1.6,2.9-.9-.3-1.1-.4-2.3-.8-1.1-.3-2.4-.5-3.1-.6h0Z"></path>
</svg><style>@media (prefers-color-scheme: light) { :root { filter: none; } }
@media (prefers-color-scheme: dark) { :root { filter: none; } }
</style></svg>